<svg xmlns="http://www.w3.org/2000/svg" xmlns:xlink="http://www.w3.org/1999/xlink" width="350" height="290" viewBox="0 0 350 290">
  <defs>
    <clipPath id="clip-path">
      <rect id="Rectangle_33" data-name="Rectangle 33" width="380" height="305" transform="translate(770 3974)" fill="#fff" stroke="#707070" stroke-width="1"/>
    </clipPath>
    <clipPath id="clip-path-2">
      <rect id="Rectangle_32" data-name="Rectangle 32" width="346.151" height="388.88" fill="none"/>
    </clipPath>
    <clipPath id="clip-footerbckg">
      <rect width="350" height="290"/>
    </clipPath>
  </defs>
  <g id="footerbckg" clip-path="url(#clip-footerbckg)">
    <g id="Mask_Group_4" data-name="Mask Group 4" transform="translate(-785 -3987)" clip-path="url(#clip-path)">
      <g id="Group_28" data-name="Group 28" transform="translate(787 3991)">
        <g id="Group_27" data-name="Group 27" transform="translate(0 0)" clip-path="url(#clip-path-2)">
          <path id="Path_438" data-name="Path 438" d="M144.86,103.389s-23.879,4.666-40.612,12.336-31.782,16.553-31.782,16.553S88.294,92.449,91.331,84.2,100.4,66.072,100.4,66.072,92.626,56.051,92.49,51.138c0,0-15.911-2-26.657-9.651,0,0-7.774-3.263-9.192-6.4,0,0-15.889-11.819-14.787-22.292,0,0-11.148,17.677-24.378,53.034S-3.5,115.51,2.588,154.334s39.5,49.254,46.491,50.909,19.417,5.147,32.033,2.764a128.015,128.015,0,0,0,24.331-7.544l-3.657,28.333L88.122,354.646H269.2l-7.046-70.822s7.3,18.391,19.037,25.383a40.664,40.664,0,0,0,40.328.585c13.517-7.239,20.128-21.334,21.424-32.059s.843-25.386-3.575-45.019-18.409-79.561-18.409-79.561l-41.538-19.87s-14.543-21.908-36.89-27l-22.35-5.089Z" transform="translate(1.241 33.118)" fill="#ff9d00"/>
          <path id="Path_439" data-name="Path 439" d="M150.683,105.6s1.454-13.592-4.971-23.592S134.4,66.6,132.751,63.672s-.915-15.839-2.057-20.763-2.688-12.444-11.432-10.986-11.155,12.91-9.781,20.365,6.7,24.938,6.407,27.346S101.651,90.8,94.221,93.577,72.582,101.39,68.893,107.09s-2.423,13.2,4.72,13.894c0,0-9.188,4.806-7.318,11.586a7.565,7.565,0,0,0,8.19,5.919s-1.558,9.971,8.6,11.234,29.5-5.721,36.182-9.321,18.412-9.723,23.488-17.131,8.151-16.083,7.932-17.669" transform="translate(170.997 82.174)" fill="#fff"/>
          <path id="Path_440" data-name="Path 440" d="M53.463,40.708S38.14,37.787,37.7,51.182,50.947,64.472,55,61.719c0,0-.266,31.348,30.824,30.856s31.936-26.413,31.936-26.413V62.3s14.073,4.368,16.56-4.878.9-12.932-2.685-14.927S118.9,41.11,118.9,41.11V37.905a83.289,83.289,0,0,0-27.529-18.29C74.5,12.842,65.931,11.873,65.931,11.873s-6.791,17.26-11.489,20.961Z" transform="translate(97.591 30.741)" fill="#fff"/>
          <path id="Path_441" data-name="Path 441" d="M56.563,30.977v8.747L40.706,56.3l11.123,61.21L78.862,78.581l27.116,38.932,10.843-62.484L101.2,39.3l.111-7.53Z" transform="translate(105.394 80.206)" fill="#fff"/>
          <path id="Path_442" data-name="Path 442" d="M42.691,56.085S40.129,41.437,40.3,37.227s3.241-15.839,6.622-17.537a21.467,21.467,0,0,1,4.551-1.9S59.2,5.37,77.18,5.266s31.129,7.013,36.477,16.539,4.25,24.069,4.232,28.365a24.634,24.634,0,0,1-1,7.186l-4.716.28-.363-2.617S96.676,40.2,79.875,34.88,59.2,28.987,59.2,28.987,53.85,44.653,47.709,49.944l-.251,7.692Z" transform="translate(104.325 13.631)" fill="#1a1a1a"/>
          <path id="Path_443" data-name="Path 443" d="M61.883,64.7s10.717,5.6,15.4,12.835,5.879,24.223-3.5,24.884S60.211,92.2,59.03,89.046s-1.594-7.01-8.88-9.468-23.538-4.784-26.488-9.63-7.842-7.735-7.616-23.484c0,0-5.061-16.306,2.451-23.218s16.076-6.7,31.416-6.277S76.276,9.75,83.3,6.775s18-8.8,24.1-5.545,1.69,11.729,1.69,11.729,5.427,1.891,7.085,6.335-4.583,13-4.583,13,3.6.965,4.551,7S108.327,50.868,100.6,52.964,73.821,57.483,69.8,57.8s-10.444,3-7.918,6.895" transform="translate(37.228 0.698)" fill="#fff"/>
          <path id="Path_444" data-name="Path 444" d="M19.911,10.786s-6.9,1.249-7.86,7.2S21.72,36.947,24.444,38.319h1.913S21.006,26.263,22.764,19.7Z" transform="translate(31.041 27.927)" fill="#1a1a1a"/>
          <path id="Path_445" data-name="Path 445" d="M20.551,21.583s7.038.093,11.83,2.1a44.682,44.682,0,0,1,6.884,3.406,31.942,31.942,0,0,1-18.714-5.506" transform="translate(53.21 55.882)" fill="#1a1a1a"/>
          <path id="Path_446" data-name="Path 446" d="M32.72,16.478s-5.757,1.841-5.219,5.057c0,0,10.053,6.809,11.956,8.819s3.281,3.377,3.281,3.377S42.91,24.5,32.72,16.478" transform="translate(71.115 42.664)" fill="#1a1a1a"/>
          <path id="Path_447" data-name="Path 447" d="M99.465,57.277l4.716-.284a24.657,24.657,0,0,0,1-7.182c.018-4.3,1.113-18.84-4.235-28.365C96.45,13.428,86.411,7.137,72.621,5.4,81.91,9.423,91.8,15.722,89.774,23.841,86.813,35.685,45.2,27.789,45.2,27.789l1.055,1.5c.233-.657,4.113-.079,20.914,5.237S99.1,54.661,99.1,54.661Z" transform="translate(117.031 13.989)" fill="#fff"/>
          <path id="Path_448" data-name="Path 448" d="M107.21,113.026c-.915-.477-27.12-38.1-27.12-38.1L53.971,112.548c-2.014-.427-13.739-61.641-13.739-61.641C40.537,49.91,57,33.331,57,33.331c1.759.23,23.086,37.4,23.086,37.4l21.481-37.582c1.766-.233,17.275,15.494,17.275,15.494.305.973-10.531,63.46-10.531,63.46-.94.919-1.023.926-1.1.926M42.536,51.069l11.116,58.023L78.773,72.92,57.55,35.948ZM81.411,72.916l25.16,36.125L116.85,49.8,102.777,35.528Z" transform="translate(104.168 85.811)" fill="#1a1a1a"/>
          <path id="Path_449" data-name="Path 449" d="M57.29,37.783a23.425,23.425,0,0,1-4.881-.506,1.115,1.115,0,0,1,.51-2.171c.075.018,7.268,1.64,11.762-1.482A8.686,8.686,0,0,0,68.2,27.253a1.1,1.1,0,0,1,1.249-.965,1.113,1.113,0,0,1,.969,1.245,10.832,10.832,0,0,1-4.472,7.932,15.3,15.3,0,0,1-8.657,2.319" transform="translate(133.471 68.036)" fill="#1a1a1a"/>
          <path id="Path_450" data-name="Path 450" d="M73.356,212.237A90.751,90.751,0,0,1,48,208.332C20,200.4,3.048,176.392.266,140.737c-1.981-25.4,7.415-50.3,16.876-71.3,3.6-8.015,6.231-14.6,8.776-20.961,4.687-11.737,8.736-21.869,17.088-36.132a1.119,1.119,0,0,1,1.931,1.131C36.668,27.592,32.644,37.653,27.993,49.307,25.437,55.692,22.8,62.3,19.174,70.354,9.839,91.1.55,115.67,2.492,140.561c2.7,34.657,19.08,57.965,46.114,65.621,14.953,4.239,32.256,6.83,57.491-2.742a1.118,1.118,0,0,1,.8,2.089c-12.989,4.928-23.925,6.708-33.537,6.708" transform="translate(-0.001 30.545)" fill="#1a1a1a"/>
          <path id="Path_451" data-name="Path 451" d="M20.361,111.483a1.143,1.143,0,0,1-1.1-1.278c2.416-16.349,8.657-30.522,11.32-36.574.463-1.055.833-1.888,1.07-2.484L41.024,47.8A179.5,179.5,0,0,1,49.782,29.89l1.055-1.97a1.1,1.1,0,0,1,1.507-.459,1.113,1.113,0,0,1,.463,1.507l-1.055,1.974A176.575,176.575,0,0,0,43.1,48.629L33.724,71.984c-.244.607-.625,1.468-1.1,2.545-2.85,6.478-8.783,19.949-11.159,36a1.118,1.118,0,0,1-1.105.955" transform="translate(49.832 70.747)" fill="#1a1a1a"/>
          <path id="Path_452" data-name="Path 452" d="M47.869,19.959c.894-.14,1.49.24,1.748,3.453.284,3.582-.646,4.214-1.446,4.181s-1.612-1.134-1.572-3.7.1-3.754,1.271-3.937" transform="translate(120.647 51.616)" fill="#1a1a1a"/>
          <path id="Path_453" data-name="Path 453" d="M50.087,44.875a13.127,13.127,0,0,1-9.565-4.318,12.75,12.75,0,0,1,1.131-18,12.786,12.786,0,0,1,13.154-2.283,1.116,1.116,0,1,1-.822,2.075,10.658,10.658,0,0,0-3.241-.729,10.523,10.523,0,0,0-1.317,21,10.848,10.848,0,0,0,5.5-1.159,1.116,1.116,0,1,1,1.027,1.981,12.746,12.746,0,0,1-5.868,1.432" transform="translate(96.656 50.141)" fill="#1a1a1a"/>
          <path id="Path_454" data-name="Path 454" d="M41.568,35.492c-1.263-.922-1.17-1.626-.682-2l6.683-5.165L40.086,22.79A1.116,1.116,0,1,1,41.414,21l8.671,6.421c.018,1.78-7.835,7.842-7.835,7.842a1.105,1.105,0,0,1-.682.233" transform="translate(102.613 53.789)" fill="#1a1a1a"/>
          <path id="Path_455" data-name="Path 455" d="M66.49,44.874a12.75,12.75,0,0,1-5.872-1.432,1.12,1.12,0,0,1-.477-1.507,1.134,1.134,0,0,1,1.511-.474,10.521,10.521,0,0,0,15.34-10,10.624,10.624,0,0,0-11.159-9.845,10.49,10.49,0,0,0-3.453.818,1.118,1.118,0,0,1-.876-2.057,12.571,12.571,0,0,1,4.189-.983,12.75,12.75,0,1,1,1.6,25.451c-.269.018-.535.029-.8.029" transform="translate(155.392 50.143)" fill="#1a1a1a"/>
          <path id="Path_456" data-name="Path 456" d="M68.691,35.487c-.682-.233-8.535-6.3-8.535-6.3.014-1.78,8.689-8.2,8.689-8.2a1.117,1.117,0,1,1,1.332,1.795l-7.491,5.542,6.679,5.161a1.115,1.115,0,0,1-.675,2" transform="translate(155.754 53.794)" fill="#1a1a1a"/>
          <path id="Path_457" data-name="Path 457" d="M112.432,217.073c-14.055,0-29.255-6.988-39.273-31.538a1.117,1.117,0,0,1,2.067-.847c10.34,25.343,27.36,34.8,50.593,28.143,39.1-11.223,28.347-60.833,24.812-77.135-5.165-23.818-19.152-82.813-19.292-83.409a1.113,1.113,0,0,1,.833-1.342,1.124,1.124,0,0,1,1.342.829c.14.589,14.127,59.613,19.3,83.452,3.647,16.8,14.737,67.954-26.373,79.751a51.2,51.2,0,0,1-14.009,2.1" transform="translate(189.206 131.831)" fill="#1a1a1a"/>
          <path id="Path_458" data-name="Path 458" d="M77.78,79.212H73.315c-5.61,0-13.642-1.156-20.046-6.647-4.914-4.214-8.165-10.976-9.942-20.681C42.157,45.485,41.895,25.2,42,18.562a1.116,1.116,0,0,1,2.232.036c-.108,7.135.2,26.93,1.292,32.884,1.68,9.181,4.687,15.52,9.2,19.385,5.89,5.054,13.359,6.112,18.6,6.112H77.78c5.233,0,12.706-1.059,18.592-6.112,4.508-3.866,7.512-10.2,9.2-19.385,1.177-6.428,1.21-22.418,1.123-28.039a1.117,1.117,0,0,1,1.1-1.134,1.049,1.049,0,0,1,1.134,1.1c.086,5.678.05,21.865-1.156,28.473-1.78,9.705-5.028,16.467-9.946,20.681-6.4,5.491-14.432,6.647-20.042,6.647" transform="translate(108.689 45.217)" fill="#1a1a1a"/>
          <path id="Path_459" data-name="Path 459" d="M45.933,37.946a1.123,1.123,0,0,1-1.12-1.127l.039-3.618a1.114,1.114,0,1,1,2.229.022l-.032,3.621a1.117,1.117,0,0,1-1.116,1.1" transform="translate(116.029 83.102)" fill="#1a1a1a"/>
          <path id="Path_460" data-name="Path 460" d="M58.366,37.526A1.121,1.121,0,0,1,57.25,36.37l.115-3.194A1.04,1.04,0,0,1,58.52,32.1,1.126,1.126,0,0,1,59.6,33.258l-.115,3.194a1.116,1.116,0,0,1-1.116,1.073" transform="translate(148.227 83.096)" fill="#1a1a1a"/>
          <path id="Path_461" data-name="Path 461" d="M113.459,58.915a1.152,1.152,0,0,1-1.105-1.289c2.48-15.857.122-25.641-2.509-33.117C104.335,8.832,81.314,5.4,66.714,7.949,55.659,9.894,49.521,18.81,49.464,18.9a16.345,16.345,0,0,0-6.012,3.065,1.116,1.116,0,0,1-1.475-1.676,13.621,13.621,0,0,1,5.9-3.008c1.346-1.823,7.663-9.633,18.452-11.532,15.354-2.7,39.678,1.109,45.626,18.021,2.721,7.738,5.158,17.853,2.606,34.2a1.117,1.117,0,0,1-1.1.944" transform="translate(107.699 12.847)" fill="#1a1a1a"/>
          <path id="Path_462" data-name="Path 462" d="M43.7,35.569c-1.188-1.21-3.8-10.674-3.718-20.491a1.116,1.116,0,0,1,2.232.014,79.038,79.038,0,0,0,2.563,19.059,1.12,1.12,0,0,1-.775,1.378,1.088,1.088,0,0,1-.3.039" transform="translate(103.524 36.168)" fill="#1a1a1a"/>
          <path id="Path_463" data-name="Path 463" d="M25.7,124.374a1.14,1.14,0,0,1-1.109-1.231l2.089-19.981a1.052,1.052,0,0,1,1.227-.991A1.113,1.113,0,0,1,28.9,103.4l-2.089,19.981a1.119,1.119,0,0,1-1.113,1" transform="translate(63.661 264.506)" fill="#1a1a1a"/>
          <path id="Path_464" data-name="Path 464" d="M29.511,115.769a1.146,1.146,0,0,1-1.109-1.26L35.717,57.85a1.118,1.118,0,0,1,2.218.284L30.617,114.8a1.115,1.115,0,0,1-1.105.973" transform="translate(73.516 147.26)" fill="#1a1a1a"/>
          <path id="Path_465" data-name="Path 465" d="M88.332,221.651a1.118,1.118,0,0,1-1.113-1.012C79.61,139.955,73.842,91.935,70.346,65.852A1.114,1.114,0,0,1,71.3,64.6a1.1,1.1,0,0,1,1.26.958c3.5,26.1,9.267,74.156,16.883,154.877a1.123,1.123,0,0,1-1.009,1.217l-.1,0" transform="translate(182.113 167.229)" fill="#1a1a1a"/>
          <path id="Path_466" data-name="Path 466" d="M45.6,24.662c-.962-.276-1.26-.915-1.048-1.5,2-5.509,9.644-7.1,14.177-6.087a1.117,1.117,0,0,1,.847,1.335,1.084,1.084,0,0,1-1.332.843c-3.733-.822-10.107.567-11.6,4.673a1.111,1.111,0,0,1-1.048.732" transform="translate(115.198 43.475)" fill="#1a1a1a"/>
          <path id="Path_467" data-name="Path 467" d="M67.416,24.663c-2.541-4.838-8.923-6.231-12.645-5.405a1.116,1.116,0,0,1-.488-2.179c4.54-1.019,12.182.578,14.181,6.087A1.116,1.116,0,0,1,67.8,24.6a1.016,1.016,0,0,1-.38.068" transform="translate(138.294 43.474)" fill="#1a1a1a"/>
          <path id="Path_468" data-name="Path 468" d="M48.047,15.9c-.912-.474-4.5-5.549-4.5-5.549a1.116,1.116,0,1,1,1.823-1.289l3.6,5.079A1.118,1.118,0,0,1,48.69,15.7a1.1,1.1,0,0,1-.642.2" transform="translate(112.209 22.259)" fill="#1a1a1a"/>
          <path id="Path_469" data-name="Path 469" d="M122.274,70.769c-21.5-25.07-43.117-29.8-59.652-31.168a1.118,1.118,0,0,1-1.016-1.21,1.09,1.09,0,0,1,1.2-1.019c16.966,1.407,39.154,6.26,60.323,31.563a1.123,1.123,0,0,1-.14,1.576,1.1,1.1,0,0,1-.718.258" transform="translate(159.498 96.749)" fill="#1a1a1a"/>
          <path id="Path_470" data-name="Path 470" d="M78.093,76.186A16.412,16.412,0,0,1,69.87,74.4a7.943,7.943,0,0,1-3.887-5.14c-1.83-7.48,7.473-12.616,7.867-12.831a1.117,1.117,0,1,1,1.066,1.963c-.083.047-8.187,4.537-6.766,10.337a5.731,5.731,0,0,0,2.843,3.743c3.69,2.15,10.459,2,19.051-.445,11.844-3.359,33.4-14.123,33.613-14.235a1.118,1.118,0,0,1,1,2c-.894.445-21.962,10.972-34,14.389a47.157,47.157,0,0,1-12.562,2.01" transform="translate(170.224 145.754)" fill="#1a1a1a"/>
          <path id="Path_471" data-name="Path 471" d="M86.366,151.591c-3.84,0-6.92-.7-8.779-2.254-6.457-5.438-3.1-10.628-3.069-10.681a1.119,1.119,0,0,1,1.866,1.235c-.126.194-2.2,3.657,2.645,7.738,5.122,4.314,25.178.291,42.083-8.427a73.325,73.325,0,0,0,22.375-17.167c5.506-6.439,7.652-15.408,6.041-25.253a49.3,49.3,0,0,0-11.17-23.994c-.546-.642-1.095-1.253-1.64-1.852C133.972,67.88,131.37,65,131,60.429c-.154-1.953-.215-4.131-.276-6.385-.244-8.675-.513-18.506-6.457-19.97-3.855-.951-7.175-.183-9.551,2.254-4.336,4.415-5.089,13.431-2.071,24.74,1.041,3.894,2.182,7.76,3.331,11.622L117.25,77a5.76,5.76,0,0,1,.161,3.783,5.59,5.59,0,0,1-1.766,2.146A79.37,79.37,0,0,1,90.572,97.085c-12.5,4.332-19.866,9.063-21.908,14.059a7.679,7.679,0,0,0,.4,6.64,5.268,5.268,0,0,0,3.381,2.408c7.537,2.372,26.467-1.138,46.692-12.275a1.12,1.12,0,1,1,1.084,1.96c-18.538,10.2-38.9,15.433-48.439,12.447a7.4,7.4,0,0,1-4.716-3.542A9.925,9.925,0,0,1,66.6,110.3c2.326-5.7,9.931-10.707,23.24-15.326a77.131,77.131,0,0,0,24.378-13.757,3.691,3.691,0,0,0,1.123-1.263,3.887,3.887,0,0,0-.237-2.329l-1.263-4.3c-1.152-3.887-2.3-7.771-3.345-11.683-3.227-12.092-2.265-21.89,2.631-26.883,2.922-2.983,7.074-3.988,11.683-2.857,7.591,1.874,7.893,12.6,8.155,22.073.061,2.218.118,4.357.276,6.27.3,3.812,2.545,6.3,5.143,9.188.556.617,1.12,1.242,1.68,1.9a51.543,51.543,0,0,1,11.672,25.085c1.719,10.506-.607,20.117-6.55,27.066a75.47,75.47,0,0,1-23.043,17.705c-11.629,5.994-26.1,10.4-35.773,10.4" transform="translate(170.515 81.44)" fill="#1a1a1a"/>
          <path id="Path_472" data-name="Path 472" d="M69.356,29.488H33.317a1.116,1.116,0,1,1,0-2.232H69.356a1.116,1.116,0,0,1,0,2.232" transform="translate(83.374 70.571)" fill="#1a1a1a"/>
          <path id="Path_473" data-name="Path 473" d="M16.789,47.88c-1.306-1.454-7.132-18.258,3.995-26.969,6.177-4.835,13.689-4.619,21.65-4.411,6.3.172,13.452.37,20.946-1.9A161.53,161.53,0,0,0,81.1,7.552C93.26,2.157,103.765-2.5,109.641,1.511c2.728,1.863,3.647,5.416,2.455,9.508-3.008,10.3-17.914,21.765-43.54,22.572a1.132,1.132,0,0,1-1.149-1.084,1.112,1.112,0,0,1,1.08-1.149c28.218-.89,39.463-14.1,41.462-20.968.926-3.158.352-5.725-1.568-7.035C103.547.054,93.08,4.68,82,9.59a162.364,162.364,0,0,1-17.975,7.146c-7.839,2.372-15.186,2.171-21.657,1.992-7.864-.208-14.658-.4-20.211,3.945-9.852,7.713-4.375,23.556-4.318,23.717a1.118,1.118,0,0,1-.682,1.425,1.083,1.083,0,0,1-.37.065" transform="translate(36.507 0)" fill="#1a1a1a"/>
          <path id="Path_474" data-name="Path 474" d="M37.584,34.175q-3.623,0-7.39-.284a1.115,1.115,0,0,1-1.026-1.2,1.05,1.05,0,0,1,1.2-1.027c22.6,1.716,42.41-4.917,46.121-15.433,1.084-3.072,1.041-5.517-.118-7.261-1.848-2.782-5.962-3.054-6-3.054a1.119,1.119,0,0,1-1.052-1.181A1.149,1.149,0,0,1,70.49,3.685c.212.018,5.276.348,7.735,4.049,1.568,2.362,1.694,5.47.362,9.242-3.672,10.405-20.372,17.2-41,17.2" transform="translate(75.511 9.541)" fill="#1a1a1a"/>
          <path id="Path_475" data-name="Path 475" d="M22.771,33.467a1.117,1.117,0,0,1-.057-2.232C42.465,30.183,44.874,10.895,44.9,10.7a1.157,1.157,0,0,1,1.235-.987,1.128,1.128,0,0,1,.987,1.238c-.025.212-2.667,21.363-24.288,22.515Z" transform="translate(56.065 25.151)" fill="#1a1a1a"/>
          <path id="Path_476" data-name="Path 476" d="M71.441,81.529a8.179,8.179,0,0,1-2.617-.434c-6.662-2.24-10.864-12.67-12.365-17.049-1.213-3.56-6.382-5.509-9.472-6.672a69.147,69.147,0,0,0-9.565-2.584c-1.938-.427-3.883-.858-5.807-1.378A20.687,20.687,0,0,1,17.947,42.145,37.092,37.092,0,0,1,14.592,23.7a1.155,1.155,0,0,1,1.181-1.052,1.123,1.123,0,0,1,1.052,1.177,34.823,34.823,0,0,0,3.13,17.332,18.293,18.293,0,0,0,12.25,10.1c1.888.513,3.794.933,5.7,1.35a70.815,70.815,0,0,1,9.874,2.674c3.456,1.3,9.246,3.481,10.8,8.04C59.661,66.494,63.659,77,69.535,78.981a6.649,6.649,0,0,0,6.055-1.12,10.546,10.546,0,0,0,4.479-8.481c.352-6.371-3.291-14.292-8.661-18.832a60.01,60.01,0,0,0-9.641-6.679A3.72,3.72,0,0,1,59.7,41.714a3.313,3.313,0,0,1,.212-2.035,7.2,7.2,0,0,1,4.716-4.3,18.62,18.62,0,0,1,4.587-.628A135.312,135.312,0,0,0,91.78,31.787c5.6-1.256,12.056-3,17.461-6.475,1.838-1.177,4.364-3.029,5.1-5.491,1.834-6.137-4.117-8.689-4.368-8.793a1.12,1.12,0,0,1-.6-1.461,1.133,1.133,0,0,1,1.461-.6c2.8,1.159,7.573,5.057,5.646,11.5-.951,3.169-3.9,5.355-6.03,6.726-5.7,3.657-12.39,5.477-18.179,6.776a137.98,137.98,0,0,1-22.734,3,17.279,17.279,0,0,0-4.253.542,4.927,4.927,0,0,0-3.291,2.979c3.977,3.1,7.724,5.7,10.857,8.345,5.865,4.96,9.834,13.65,9.45,20.663a12.619,12.619,0,0,1-5.466,10.215,9.625,9.625,0,0,1-5.395,1.813" transform="translate(37.588 22.995)" fill="#1a1a1a"/>
          <path id="Path_477" data-name="Path 477" d="M21.3,68.126c-1.271-1.041-1.116-1.73-.6-2.06.334-.208,33.516-20.928,71.963-28.322a1.115,1.115,0,1,1,.42,2.189C55.051,47.251,22.224,67.749,21.9,67.954a1.093,1.093,0,0,1-.6.172" transform="translate(52.617 97.669)" fill="#1a1a1a"/>
          <path id="Path_478" data-name="Path 478" d="M181,177.372H169.374a1.116,1.116,0,1,1,0-2.232H181a1.116,1.116,0,0,1,0,2.232m-23.254,0H146.124a1.116,1.116,0,1,1,0-2.232h11.625a1.116,1.116,0,1,1,0,2.232m-23.254,0H122.869a1.116,1.116,0,0,1,0-2.232h11.625a1.116,1.116,0,0,1,0,2.232m-23.258,0H99.608a1.116,1.116,0,0,1,0-2.232h11.629a1.116,1.116,0,1,1,0,2.232m-23.254,0H76.354a1.116,1.116,0,1,1,0-2.232H87.983a1.116,1.116,0,1,1,0,2.232m-23.254,0H53.1a1.116,1.116,0,1,1,0-2.232H64.728a1.116,1.116,0,1,1,0,2.232m-23.258,0H29.841a1.116,1.116,0,0,1,0-2.232H41.47a1.116,1.116,0,1,1,0,2.232M21.9,173.689a1.113,1.113,0,0,1-1.116-1.116V160.944a1.116,1.116,0,0,1,2.232,0v11.629a1.117,1.117,0,0,1-1.116,1.116m0-23.258a1.113,1.113,0,0,1-1.116-1.116V137.69a1.116,1.116,0,0,1,2.232,0v11.625a1.117,1.117,0,0,1-1.116,1.116m0-23.254a1.113,1.113,0,0,1-1.116-1.116V114.432a1.116,1.116,0,1,1,2.232,0v11.629a1.117,1.117,0,0,1-1.116,1.116m0-23.258a1.112,1.112,0,0,1-1.116-1.113V91.178a1.116,1.116,0,0,1,2.232,0v11.629a1.117,1.117,0,0,1-1.116,1.113m0-23.254a1.113,1.113,0,0,1-1.116-1.116V67.92a1.116,1.116,0,1,1,2.232,0V79.549A1.117,1.117,0,0,1,21.9,80.665m0-23.254a1.113,1.113,0,0,1-1.116-1.116V44.665a1.116,1.116,0,0,1,2.232,0V56.294A1.117,1.117,0,0,1,21.9,57.411m0-23.254a1.116,1.116,0,0,1-1.116-1.12V21.411a1.116,1.116,0,1,1,2.232,0V33.036a1.121,1.121,0,0,1-1.116,1.12m0-23.258a1.113,1.113,0,0,1-1.116-1.116c0-1.744.5-2.243,1.116-2.243H32.4a1.116,1.116,0,1,1,0,2.232l-9.382.011A1.117,1.117,0,0,1,21.9,10.9M148.675,9.771H137.05a1.116,1.116,0,0,1,0-2.232h11.625a1.116,1.116,0,1,1,0,2.232m-23.251,0H113.8a1.116,1.116,0,0,1,0-2.232h11.629a1.116,1.116,0,1,1,0,2.232m-23.258,0H90.538a1.116,1.116,0,1,1,0-2.232h11.629a1.116,1.116,0,1,1,0,2.232m-23.258,0H67.284a1.116,1.116,0,1,1,0-2.232H78.909a1.116,1.116,0,0,1,0,2.232m-23.254,0H44.026a1.116,1.116,0,0,1,0-2.232H55.655a1.116,1.116,0,1,1,0,2.232" transform="translate(53.819 19.52)" fill="#1a1a1a"/>
          <path id="Path_479" data-name="Path 479" d="M107.792,39.336C85.539,18.939,60.541,14.19,55.573,13.422c-1.181,3.345-5.653,15.128-11.711,20.767a1.117,1.117,0,0,1-1.522-1.637c6.543-6.08,11.374-20.57,11.421-20.713,1.472-.732,30.372,2.728,54.8,25.562a1.128,1.128,0,0,1,.05,1.583,1.115,1.115,0,0,1-.815.352" transform="translate(108.703 30.427)" fill="#1a1a1a"/>
          <path id="Path_480" data-name="Path 480" d="M58.688,49.786a13.215,13.215,0,0,1-9.633-4.411,3.524,3.524,0,0,1-.757-3.41,26.485,26.485,0,0,1,2.286-4.3c2.509-4.156,5.951-9.856,6.726-18.94A1.055,1.055,0,0,1,58.516,17.7a1.124,1.124,0,0,1,1.019,1.213c-.818,9.6-4.562,15.8-7.038,19.9a25.236,25.236,0,0,0-2.1,3.9,9.985,9.985,0,0,0,8.793,4.817,1.046,1.046,0,0,1,1.184,1.041,1.111,1.111,0,0,1-1.037,1.184c-.223.014-.434.025-.653.025" transform="translate(124.614 45.819)" fill="#1a1a1a"/>
          <path id="Path_481" data-name="Path 481" d="M52.112,130.483A1.113,1.113,0,0,1,51,129.366V47.7a1.116,1.116,0,1,1,2.232,0v81.668a1.111,1.111,0,0,1-1.116,1.116" transform="translate(132.038 120.609)" fill="#1a1a1a"/>
          <path id="Path_482" data-name="Path 482" d="M28.524,43.007C15.119,33.195,9.168,22.653,12.7,15.916c1.651-3.151,4.21-4.781,8.56-5.463a1.108,1.108,0,0,1,1.274.933,1.122,1.122,0,0,1-.93,1.278c-3.618.56-5.624,1.805-6.931,4.293C11.724,22.578,17.56,32.247,29.2,41a1.112,1.112,0,0,1,.219,1.561,1.093,1.093,0,0,1-.89.445" transform="translate(30.288 27.021)" fill="#1a1a1a"/>
          <path id="Path_483" data-name="Path 483" d="M44.7,31.821c-7.3-.965-15-3.643-23.667-8.19q-.8-.42-1.594-.854a1.116,1.116,0,1,1,1.077-1.956c.51.284,1.03.56,1.551.829,8.438,4.429,15.893,7.028,22.784,7.95a1.116,1.116,0,0,1-.151,2.222" transform="translate(48.838 53.551)" fill="#1a1a1a"/>
          <path id="Path_484" data-name="Path 484" d="M39.187,35.644a1.142,1.142,0,0,1-1.113-1.238c.5-4.472-2.746-10.265-9.131-16.309a1.118,1.118,0,0,1,1.54-1.622c6.9,6.539,10.387,12.993,9.813,18.176a1.12,1.12,0,0,1-1.109.994" transform="translate(74.041 41.867)" fill="#1a1a1a"/>
          <path id="Path_485" data-name="Path 485" d="M55.336,38.319C54,36.377,52.034,26.931,57.2,25.628a4.366,4.366,0,0,1,4.361.922c1.9,1.859,1.888,5.481,1.3,8.011a1.118,1.118,0,0,1-2.179-.506c.5-2.121.42-4.835-.689-5.908-.179-.187-.739-.743-2.247-.352-2.412.607-1.927,6.439-1.314,9.163a1.122,1.122,0,0,1-.847,1.335,1.444,1.444,0,0,1-.244.025" transform="translate(139.377 65.853)" fill="#1a1a1a"/>
          <path id="Path_486" data-name="Path 486" d="M63.318,29.515c-.266-.032-9.095-2.207-9.095-2.207-.366-2,7.519-7.487,7.519-7.487a1.117,1.117,0,1,1,1.274,1.834l-5.858,4.077,6.428,1.583a1.117,1.117,0,0,1-.269,2.2" transform="translate(140.361 50.814)" fill="#1a1a1a"/>
          <path id="Path_487" data-name="Path 487" d="M81.675,39.064a1.115,1.115,0,0,1-1.116-1.116V26.319a1.116,1.116,0,0,1,2.232,0V37.948a1.113,1.113,0,0,1-1.116,1.116" transform="translate(208.581 65.255)" fill="#fff"/>
          <path id="Path_488" data-name="Path 488" d="M81.675,32.582a1.113,1.113,0,0,1-1.116-1.116V19.84a1.116,1.116,0,0,1,2.232,0V31.466a1.111,1.111,0,0,1-1.116,1.116" transform="translate(208.581 48.48)" fill="#fff"/>
          <path id="Path_489" data-name="Path 489" d="M81.675,26.105a1.113,1.113,0,0,1-1.116-1.116V13.36a1.116,1.116,0,0,1,2.232,0V24.989a1.111,1.111,0,0,1-1.116,1.116" transform="translate(208.581 31.702)" fill="#fff"/>
          <path id="Path_490" data-name="Path 490" d="M86.268,15.033a1.115,1.115,0,0,1-1.116-1.116V9.771H79.9a1.116,1.116,0,0,1,0-2.232h6.367a1.111,1.111,0,0,1,1.116,1.116v5.262a1.113,1.113,0,0,1-1.116,1.116" transform="translate(203.988 19.52)" fill="#fff"/>
          <path id="Path_491" data-name="Path 491" d="M85.048,9.771H73.422a1.116,1.116,0,0,1,0-2.232H85.048a1.116,1.116,0,1,1,0,2.232" transform="translate(187.213 19.52)" fill="#fff"/>
          <path id="Path_492" data-name="Path 492" d="M78.571,9.771H66.942a1.116,1.116,0,1,1,0-2.232H78.571a1.116,1.116,0,0,1,0,2.232" transform="translate(170.435 19.52)" fill="#fff"/>
          <path id="Path_493" data-name="Path 493" d="M72.092,9.771H60.463a1.116,1.116,0,0,1,0-2.232H72.092a1.116,1.116,0,0,1,0,2.232" transform="translate(153.66 19.52)" fill="#fff"/>
        </g>
      </g>
    </g>
  </g>
</svg>
