<svg xmlns="http://www.w3.org/2000/svg" xmlns:xlink="http://www.w3.org/1999/xlink" width="640" height="420" viewBox="0 0 640 420">
  <defs>
    <clipPath id="clip-path">
      <rect id="Rectangle_10" data-name="Rectangle 10" width="484.35" height="420" fill="none"/>
    </clipPath>
    <clipPath id="clip-path-3">
      <rect id="Rectangle_8" data-name="Rectangle 8" width="483.302" height="61.042" fill="none"/>
    </clipPath>
    <clipPath id="clip-ilustracja-2">
      <rect width="640" height="420"/>
    </clipPath>
  </defs>
  <g id="ilustracja-2" clip-path="url(#clip-ilustracja-2)">
    <g id="Group_22" data-name="Group 22" transform="translate(78)">
      <g id="Group_11" data-name="Group 11" clip-path="url(#clip-path)">
        <g id="Group_10" data-name="Group 10">
          <g id="Group_9" data-name="Group 9" clip-path="url(#clip-path)">
            <g id="Group_8" data-name="Group 8" transform="translate(1.048 358.958)" style="mix-blend-mode: multiply;isolation: isolate">
              <g id="Group_7" data-name="Group 7">
                <g id="Group_6" data-name="Group 6" clip-path="url(#clip-path-3)">
                  <path id="Path_194" data-name="Path 194" d="M480.4,185.2c-7.931,11.256-27.966,18.405-38.274,20.506-32.3,6.581-69.669-.353-102.276-2.228-41.182-2.366-82.393-4.365-123.649-4.2-39.06.163-76.1,5.755-114.69,10.78-24.413,3.18-50.406,4.717-74.05-3.5C15.448,202.385-.359,190.857.474,176.615,2.3,145.58,52.837,152.507,71.538,154.736c72.167,8.6,145.168-.175,217.6,1.745,24.773.658,49.966.552,74.86-.971,23.547-1.437,46.7-3.912,70.474-3.929,15.372-.009,38.528-.561,47.051,15.552,3.614,6.834,2.532,12.885-1.118,18.069" transform="translate(-0.443 -151.577)" fill="#eceff1"/>
                </g>
              </g>
            </g>
            <path id="Path_195" data-name="Path 195" d="M120.269,237.575l20.028,4.987,5.21-8.686L261.255,34.69,332,241.044l99.718-30.8L352.415,341.4s-83.712,4.921-128.84,4.935c-47.972.014-118.308-4.935-118.308-4.935L0,205.818Z" transform="translate(0 47.461)" fill="#ff9d00"/>
            <path id="Path_196" data-name="Path 196" d="M157.434,135.934l.192,30.563s-31.9-8.426-48.547-17.925a310.8,310.8,0,0,1-29.626-19.286s9.231-29.306,11.123-45.81c1.485-12.978,2.131-11.63,2.131-11.63A46.54,46.54,0,0,1,64.8,77.774C49.1,75.927,41,67.444,37.719,55.011a106.492,106.492,0,0,1-3.012-30.623c.341-4.966.474-6.287.474-6.287l20.5-2.053S52.4,48.1,66.944,50.014c0,0,5.38,3.027,19.144-6.183s29.462-17.877,34.26-19.443l6.4,4.322,13.24-3.012L148.62,32.5s22.313,6.1,34.627,22.107,16.167,36.079,15.41,50.312-7.464,38.79-25.406,55.237l-15.286-23.907S173.258,116.5,175.489,102.9s-4.618-19.644-10.775-21.448Z" transform="translate(47.296 21.956)" fill="#ff9d00"/>
            <path id="Path_197" data-name="Path 197" d="M72.258,19.734,68.128,22.4,69.7,46.731l9.688-9,8.469,13.541,14.209-24.1-7.988-6.3L83.848,25.083l-9.124-5.5Z" transform="translate(93.21 26.788)" fill="#fff"/>
            <path id="Path_198" data-name="Path 198" d="M67.572,21l2.719.123a6.914,6.914,0,0,0,.793-2.83,2.089,2.089,0,0,0-.718-1.757l-2.586-.121.076-1.679,1.85-7.5s3.439-3.732,10.271-3.1a54.469,54.469,0,0,1,10.6,1.85s8.371-5.335,8.985-.111c0,0,3.682,6.183,1.726,12.359-.6,1.895,1.492,5.859-4.639,8.39l-.14,15.72-2.138,5.8s-6.749,2.316-11.284,1.892a8.46,8.46,0,0,1-6.413-3.69l.223-4.893s-5.906.647-8.9-3.709S67.572,21,67.572,21" transform="translate(91.037 4.908)" fill="#fff"/>
            <path id="Path_199" data-name="Path 199" d="M106.424,81.144,98.071,68.138s-6.2-2.1-8.12-1.918-3.427.152-4.952,3.436a29.32,29.32,0,0,0-2.084,6.581s-4.843,4.227-4.343,5.163,4.322.031,6.972-.765,5.4,1.324,9.66,1.847,8.786.817,11.22-1.338" transform="translate(107.449 90.583)" fill="#fff"/>
            <path id="Path_200" data-name="Path 200" d="M66.912,111.258l-1.3,9.423-4.734-.694-.741-2.146-2.342,1.79-32.853-2.169,17.839-8.028Z" transform="translate(34.13 149.723)" fill="#3a3a3a"/>
            <path id="Path_201" data-name="Path 201" d="M160.813,100.291l6.33,110.117-38.835-9.3-16.539-94.253s-19.623-5.234-29.375-4.611S69.859,107.407,69.146,113c-.44,3.429-.2,61.143-.2,61.143l-39.558-2.728L31.7,99.339S29.074,81.14,46.225,73.3c17.951-8.2,39.7-9.676,39.7-9.676s15.869,14.893,41.5,24.522,33.391,12.142,33.391,12.142" transform="translate(40.206 87.052)" fill="#fff"/>
            <path id="Path_202" data-name="Path 202" d="M33.252,12.421c.028-3.266-.414-3.692-.414-3.692l52.23.083.542,1.662,33.8.538c1.139,1.688-.566,4.772-.566,4.772l-33.064.493-.95,1.762-53.8-.3a7.3,7.3,0,0,0,2.228-5.319" transform="translate(42.446 11.943)" fill="#ff9d00"/>
            <path id="Path_203" data-name="Path 203" d="M35.975,10.264S35.656,7.1,42.95,6.735s8.963.313,9.951.862,4.142,1.061,3.891,6.441l1.454,5.134s-2.4,7.7-7.145,9.84L37.571,30.147l-1.842-11.01,16.43-.107-1.03-3.363a2.934,2.934,0,0,1-3.114,1.847c-2.5-.123-3.045-3.626-3.045-3.626s-.675,3.8-3.931,3.626-3.2-1.992-3.2-1.992,2.209-3.259.088-5.025Z" transform="translate(48.883 9.077)" fill="#fff"/>
            <path id="Path_204" data-name="Path 204" d="M30.2,13.026c0,2.577.718,4.67,1.606,4.67s1.613-2.093,1.613-4.67-.72-4.672-1.613-4.672S30.2,10.445,30.2,13.026" transform="translate(41.322 11.43)" fill="#fff"/>
            <path id="Path_205" data-name="Path 205" d="M40,111.392l-9.174-.8c.078-.869,9.212-.069,9.212-.069.377.7.185.872-.038.872" transform="translate(42.172 150.749)" fill="#fff"/>
            <path id="Path_206" data-name="Path 206" d="M38.317,112.17l-9.177-.805c.078-.867,9.215-.066,9.215-.066.377.7.185.871-.038.871" transform="translate(39.868 151.813)" fill="#fff"/>
            <path id="Path_207" data-name="Path 207" d="M95.64,31.6H242.613l-22.019-2.3s1.864-9.849-10.976-12.473-15.256,7.384-15.256,7.384,6.721-15.59-21.922-16.575S146.605,23.72,146.605,23.72s1.317-3.654-7.971-4.125S128.543,27,128.543,27Z" transform="translate(130.851 10.391)" fill="#fff"/>
            <path id="Path_208" data-name="Path 208" d="M149.687,57.436H210.1L190.083,52.96s-.2-5.956-11.471-6.266-10.361,7.514-10.361,7.514Z" transform="translate(204.796 63.873)" fill="#fff"/>
            <path id="Path_209" data-name="Path 209" d="M120.34,65.839,105.3,64.023s4.869-12.646-12.182-15.41S71.2,61.186,71.2,61.186s-.609-4.275-11.571-4.275-14.008,8.7-14.008,8.7L8.878,69.953l109.894.306Z" transform="translate(12.147 66.053)" fill="#fff"/>
            <path id="Path_210" data-name="Path 210" d="M155.377,83.821c-.777-.481-.777-.928-.5-1.205l7.275-7.273a.707.707,0,0,1,1,1l-7.275,7.273a.714.714,0,0,1-.5.2" transform="translate(211.666 102.802)" fill="#1a1a1a"/>
            <path id="Path_211" data-name="Path 211" d="M162.675,83.821c-.5-.2-7.775-7.476-7.775-7.476a.708.708,0,0,1,1-1l7.275,7.273a.7.7,0,0,1-.5,1.205" transform="translate(211.644 102.802)" fill="#1a1a1a"/>
            <path id="Path_212" data-name="Path 212" d="M152.955,77.049a2.783,2.783,0,1,1,2.787-2.783,2.787,2.787,0,0,1-2.787,2.783m0-4.154a1.371,1.371,0,1,0,1.371,1.371,1.37,1.37,0,0,0-1.371-1.371" transform="translate(205.456 97.801)" fill="#1a1a1a"/>
            <path id="Path_213" data-name="Path 213" d="M15.89,27.558a2.783,2.783,0,1,1,2.783-2.785,2.789,2.789,0,0,1-2.783,2.785m0-4.154a1.371,1.371,0,1,0,1.369,1.369A1.374,1.374,0,0,0,15.89,23.4" transform="translate(17.923 30.09)" fill="#1a1a1a"/>
            <path id="Path_214" data-name="Path 214" d="M48.566,97.393H16.622a.706.706,0,1,1,0-1.411H48.566a.706.706,0,1,1,0,1.411" transform="translate(21.773 131.319)" fill="#1a1a1a"/>
            <path id="Path_215" data-name="Path 215" d="M229.239,255.861c-46.224,0-113.366-4.9-114.039-4.947-1-.992-105.788-145.121-105.788-145.121.751-1.1,47.257,11.277,47.257,11.277a.706.706,0,0,1-.362,1.364L11.726,106.572,115.643,249.531c5.241.377,69.124,4.921,113.6,4.921,54.633,0,126.938-4.552,132.75-4.923L440.2,120.177,253.917,168.544c-.348,0-175.052-43.155-175.052-43.155a.7.7,0,0,1-.516-.853.687.687,0,0,1,.853-.516l174.533,43.112,187.79-48.758c.777,1.049-78.526,132.2-78.526,132.2-1.312.388-77.043,5.286-133.761,5.286" transform="translate(12.877 144.647)" fill="#1a1a1a"/>
            <path id="Path_216" data-name="Path 216" d="M236.267,239.983C235.6,239.5,166.9,39.118,166.9,39.118L86.874,176.843a.707.707,0,0,1-1.224-.708L166.458,37.072c1.279.128,70.479,201.975,70.479,201.975a.707.707,0,0,1-.67.935" transform="translate(117.051 50.72)" fill="#1a1a1a"/>
            <path id="Path_217" data-name="Path 217" d="M126.717,217.734a.725.725,0,0,1-.694-.822l23.911-143.8L91.6,208.394a.707.707,0,0,1-1.3-.557L150.931,67.226a.715.715,0,0,1,.853-.4.708.708,0,0,1,.495.793L127.413,217.144a.708.708,0,0,1-.7.59" transform="translate(123.472 91.391)" fill="#1a1a1a"/>
            <path id="Path_218" data-name="Path 218" d="M104.416,220.368c-.538-.1-.777-.485-.687-.864l20.3-87.293a.721.721,0,0,1,.848-.53.71.71,0,0,1,.528.85l-20.3,87.29a.7.7,0,0,1-.689.547" transform="translate(141.893 180.14)" fill="#1a1a1a"/>
            <path id="Path_219" data-name="Path 219" d="M243.692,97.393H140.63a.706.706,0,1,1,0-1.411H243.692a.706.706,0,1,1,0,1.411" transform="translate(191.435 131.319)" fill="#1a1a1a"/>
            <path id="Path_220" data-name="Path 220" d="M95.714,97.393H46.39a.706.706,0,1,1,0-1.411H95.714a.706.706,0,1,1,0,1.411" transform="translate(62.503 131.319)" fill="#1a1a1a"/>
            <path id="Path_221" data-name="Path 221" d="M57.248,16.708a.711.711,0,0,1-.7-.751c.161-2.631-.381-4.637-1.615-5.961-1.3-1.4-3.36-2.093-6.295-2.12-.287,0-.665-.017-1.106-.031-3.038-.1-10.145-.341-10.616,2.622a.681.681,0,0,1-.805.59.708.708,0,0,1-.585-.808c.663-4.2,8.357-3.95,12.052-3.815.429.014.791.028,1.078.028,3.337.031,5.733.871,7.313,2.572,1.506,1.617,2.176,3.976,1.987,7.01a.709.709,0,0,1-.7.663" transform="translate(48.589 8.724)" fill="#1a1a1a"/>
            <path id="Path_222" data-name="Path 222" d="M40.661,16.53c-3.8,0-3.979-2.626-3.979-2.652.192-.54,1.85-3.041-.182-4.767a.706.706,0,1,1,.916-1.075,4.543,4.543,0,0,1,.715,5.944c.135.386.691,1.239,2.832,1.132a2.545,2.545,0,0,0,1.9-.76,2.943,2.943,0,0,0,.585-1.994.707.707,0,0,1,1.4-.2c.019.123.568,2.951,2.792,2.951a2.1,2.1,0,0,0,2.333-1.7.72.72,0,0,1,.793-.6.7.7,0,0,1,.606.779,3.5,3.5,0,0,1-3.713,2.937,3.868,3.868,0,0,1-3.3-1.876,4.094,4.094,0,0,1-3.332,1.876c-.128.007-.249.007-.367.007" transform="translate(49.599 10.765)" fill="#1a1a1a"/>
            <path id="Path_223" data-name="Path 223" d="M65.64,121.8c-.123-.012-4.829-.853-4.829-.853a4.093,4.093,0,0,1-.85-1.648l-1.707,1.3c-.476.144-33.337-2.022-33.337-2.022-.242-1.347,17.6-9.38,17.6-9.38a.707.707,0,0,1,.578,1.291l-15.263,6.868L57.6,119.319l2.347-1.8c1.115.388,1.556,2.11,1.556,2.11l3.538.635,1.213-8.7a.721.721,0,0,1,.8-.6.7.7,0,0,1,.6.8l-1.314,9.423c-.41.561-.557.609-.7.609" transform="translate(34.088 149.313)" fill="#1a1a1a"/>
            <path id="Path_224" data-name="Path 224" d="M76.722,32.194c-3.152,0-5.558-.77-7.28-2.314-3.922-3.526-3.325-10.328-2.8-16.328.059-.7.118-1.383.171-2.051a.7.7,0,0,1,.76-.649.7.7,0,0,1,.649.755q-.082,1.012-.173,2.065c-.5,5.672-1.056,12.1,2.34,15.156,2.236,2.008,5.965,2.463,11.4,1.4a.7.7,0,1,1,.268,1.383,27.865,27.865,0,0,1-5.335.583" transform="translate(90.655 14.84)" fill="#1a1a1a"/>
            <path id="Path_225" data-name="Path 225" d="M82.582,21.019A4.746,4.746,0,0,1,79.3,19.66a.705.705,0,1,1,.969-1.025,3.367,3.367,0,0,0,2.321.976,3.552,3.552,0,0,0,2.745-1.426,5.649,5.649,0,0,0,1.177-3.595c-.014-2.747-1.781-4.976-3.938-4.976A5.178,5.178,0,0,0,78.255,12.3a.7.7,0,1,1-1.3-.542A6.522,6.522,0,0,1,82.546,8.2c2.953,0,5.352,2.854,5.376,6.38A7.09,7.09,0,0,1,86.43,19.07a4.913,4.913,0,0,1-3.815,1.949Z" transform="translate(105.211 11.223)" fill="#1a1a1a"/>
            <path id="Path_226" data-name="Path 226" d="M81.716,16.633c-.438-.154-3.8-2.825-3.8-2.825-.038-1.075,3.538-4.329,3.538-4.329a.707.707,0,1,1,.954,1.044l-2.965,2.695,2.709,2.157a.7.7,0,0,1-.436,1.257" transform="translate(106.6 12.714)" fill="#1a1a1a"/>
            <path id="Path_227" data-name="Path 227" d="M69.665,19.458c-1.092-.8-1.314-1.835.246-9.567.111-1.167.393-1.442.782-1.48.362-.1.734.315.777.7a4.233,4.233,0,0,1-.175,1.059,47.947,47.947,0,0,0-1.21,7.77,10.51,10.51,0,0,0,2.056-1.063.707.707,0,0,1,.777,1.182,8.77,8.77,0,0,1-3.23,1.4Z" transform="translate(94.12 11.487)" fill="#1a1a1a"/>
            <path id="Path_228" data-name="Path 228" d="M74.665,15.809c-.118-.007-3.718-.424-5.956-.448a.707.707,0,0,1,.007-1.414c2.323.026,5.88.436,6.029.455a.706.706,0,0,1-.081,1.407" transform="translate(93.046 19.083)" fill="#1a1a1a"/>
            <path id="Path_229" data-name="Path 229" d="M73.254,12.95a.77.77,0,0,1-.727-.808l.111-2.16a.77.77,0,0,1,1.537.083l-.111,2.155a.775.775,0,0,1-.81.729" transform="translate(99.226 12.664)" fill="#1a1a1a"/>
            <path id="Path_230" data-name="Path 230" d="M132.437,146.049A325.137,325.137,0,0,1,86.6,129.481c-20.866-9.627-33.308-21.285-33.431-21.4-.083-.961,6.9-15.921,11.313-44.659.038-.237,3.943-22.244,6.074-31.364a.706.706,0,1,1,1.376.32c-2.122,9.084-6.02,31.051-6.058,31.274-4,26.1-10.145,40.955-11.367,43.74A137.448,137.448,0,0,0,87.189,128.2,329.7,329.7,0,0,0,131.7,144.407l-.45-14.119a.708.708,0,0,1,.684-.729.725.725,0,0,1,.729.682l.478,15.08c-.4.677-.549.727-.708.727" transform="translate(72.738 43.113)" fill="#1a1a1a"/>
            <path id="Path_231" data-name="Path 231" d="M108.1,151.769c-.592-.324-15.76-23.933-15.76-23.933-.9.081-1.168-.277-1.115-.663L98.606,72.26c7.01,2.048,10.749,6.169,12.082,11.7,3.957,16.411-14.235,39.849-17.025,43.316l14.567,22.675c4.241-4.27,29.154-31.132,23.952-68.224C126.81,43.44,103,30.805,82.86,24.073a.7.7,0,1,1,.445-1.336c20.53,6.856,44.8,19.741,50.276,58.794,5.759,41.054-24.688,69.764-25,70.05a.713.713,0,0,1-.481.187M99.88,73.39l-7.083,52.7c3.3-4.2,20.177-26.639,16.52-41.8-1.165-4.812-4.334-8.476-9.437-10.9" transform="translate(112.703 31.056)" fill="#1a1a1a"/>
            <path id="Path_232" data-name="Path 232" d="M58.171,51.613c-.592,0-1.2-.028-1.809-.088-15.767-1.5-13.046-33.76-12.923-35.132a.7.7,0,0,1,.765-.639.708.708,0,0,1,.644.765c-.031.32-2.73,32.231,11.647,33.6,7.46.71,13.461-3.5,21.065-8.821,5.965-4.182,14.588-10.112,23.727-13.714A.706.706,0,1,1,101.8,28.9c-8.982,3.54-17.531,9.421-23.431,13.555-7.237,5.07-13.07,9.16-20.2,9.16" transform="translate(59.086 21.549)" fill="#1a1a1a"/>
            <path id="Path_233" data-name="Path 233" d="M69.966,79.129a45.4,45.4,0,0,1-15.5-2.749c-25.15-9.151-19.687-55.967-19.44-57.956.63-.613,21.124-2.667,21.124-2.667a.7.7,0,0,1,.774.63.712.712,0,0,1-.637.774L36.364,19.155c-.547,5.378-4.083,47.65,18.588,55.9,8.414,3.06,21.681,5.025,37.1-3.029.947-.5,1.2-.639,1.6-.353-9.262,5.949-16.98,7.46-23.689,7.46" transform="translate(47.01 21.546)" fill="#1a1a1a"/>
            <path id="Path_234" data-name="Path 234" d="M129.069,202.215c-.853-1.482-15.964-87.042-17.257-94.34-1.831-.289-4.137-.815-6.771-1.407-12.144-2.749-30.478-6.889-34.255,3.976A22.053,22.053,0,0,0,70,117.717L70,136.2q0,19.25.047,38.5c-.758.7-40.289-2.108-40.289-2.108a.712.712,0,0,1-.656-.715c.012-.594.871-59.64,2.818-80.193C33.9,70.747,64.286,66.46,86.473,63.332a.708.708,0,0,1,.2,1.4c-21.728,3.057-51.481,7.251-53.35,27.075-1.831,19.319-2.7,72.816-2.8,79.416l38.108,2.712q-.064-18.869-.043-37.741l-.007-18.479a23.371,23.371,0,0,1,.876-7.737c4.185-12.054,23.262-7.746,35.9-4.89,2.858.644,5.324,1.2,7.168,1.466.538.227.538.227,17.245,94.833a.709.709,0,0,1-.573.817.756.756,0,0,1-.123.009" transform="translate(39.813 86.646)" fill="#1a1a1a"/>
            <path id="Path_235" data-name="Path 235" d="M91.749,190.689a.7.7,0,0,1-.7-.665L84.695,79.558a.705.705,0,0,1,.663-.746.658.658,0,0,1,.744.663l6.351,110.47a.7.7,0,0,1-.661.744Z" transform="translate(115.874 107.827)" fill="#1a1a1a"/>
            <path id="Path_236" data-name="Path 236" d="M54.916,15.213c-.012-1.059,30.895-1.681,30.895-1.681.1-.028.464-.4.464-1.726,0-1.527-.58-1.741-.585-1.741l-30.518-.6c.026-1.059,30.661-.44,30.661-.44.234.038,1.5.36,1.5,2.783,0,2.707-1.359,2.785-1.513,2.785l-30.895.623Z" transform="translate(75.134 12.099)" fill="#1a1a1a"/>
            <path id="Path_237" data-name="Path 237" d="M43.231,9H31.667c0-1.056,11.564-1.056,11.564-1.056.533.822.294,1.056,0,1.056" transform="translate(43.325 10.867)" fill="#1a1a1a"/>
            <path id="Path_238" data-name="Path 238" d="M68.988,17.954H46.545c0-1.056,22.078-1.056,22.078-1.056a12.557,12.557,0,0,0,.542-3.95A11.393,11.393,0,0,0,68.649,9H44.309c0-1.056,24.679-1.056,24.679-1.056.526.362,1.239,1.561,1.239,5a11.755,11.755,0,0,1-.76,4.706.526.526,0,0,1-.478.3" transform="translate(60.622 10.869)" fill="#1a1a1a"/>
            <path id="Path_239" data-name="Path 239" d="M57.89,12.781H31.667c0-1.056,26.223-1.056,26.223-1.056.53.819.291,1.056,0,1.056" transform="translate(43.325 16.042)" fill="#1a1a1a"/>
            <path id="Path_240" data-name="Path 240" d="M32.855,17.956c-1.411,0-2.056-2.593-2.056-5.006s.644-5.006,2.056-5.006,2.053,2.6,2.053,5.006-.644,5.006-2.053,5.006m0-8.956c-.256,0-.992,1.357-.992,3.95s.736,3.95.992,3.95.99-1.359.99-3.95S33.108,9,32.855,9" transform="translate(42.138 10.867)" fill="#1a1a1a"/>
            <path id="Path_241" data-name="Path 241" d="M65.7,91.019A.705.705,0,0,1,65,90.4l-1.745-13.9a.7.7,0,0,1,.611-.786.68.68,0,0,1,.791.611L66.4,90.226a.706.706,0,0,1-.613.786.594.594,0,0,1-.088.007" transform="translate(86.537 103.589)" fill="#1a1a1a"/>
            <path id="Path_242" data-name="Path 242" d="M79.6,30.547a.708.708,0,0,1-.706-.715l.275-16.118a.708.708,0,0,1,1.416.021l-.277,16.118a.709.709,0,0,1-.708.694" transform="translate(107.944 17.813)" fill="#1a1a1a"/>
            <path id="Path_243" data-name="Path 243" d="M43.143,27.422c-.8-.746-.661-1.17-.313-1.338,3.548-1.731,5.665-7.876,6.048-9.072-.808-2.47-2.378-6.451-3.41-7.258A3.923,3.923,0,0,0,43.5,13.518c.493,1.679,1.025,3.259,1.025,3.263a.705.705,0,1,1-1.336.452s-.542-1.61-1.042-3.323a5.893,5.893,0,0,1,2.006-5.3,1.763,1.763,0,0,1,2.183.026c1.75,1.369,3.735,7.457,3.957,8.149-.09.739-2.368,8.376-6.839,10.56a.708.708,0,0,1-.313.071" transform="translate(57.522 11.288)" fill="#1a1a1a"/>
            <path id="Path_244" data-name="Path 244" d="M37.85,24.043c-.7-.6-2.309-11.467-2.309-11.467a.708.708,0,0,1,.6-.8.716.716,0,0,1,.805.594l1.606,10.863a.71.71,0,0,1-.6.8.491.491,0,0,1-.1.007" transform="translate(48.616 16.097)" fill="#1a1a1a"/>
            <path id="Path_245" data-name="Path 245" d="M76.129,9.614H72.622a.706.706,0,1,1,0-1.411h3.507a.706.706,0,1,1,0,1.411" transform="translate(98.39 11.223)" fill="#1a1a1a"/>
            <path id="Path_246" data-name="Path 246" d="M71.243,9.614h-3.51a.706.706,0,0,1,0-1.411h3.51a.706.706,0,1,1,0,1.411" transform="translate(91.708 11.223)" fill="#1a1a1a"/>
            <path id="Path_247" data-name="Path 247" d="M100.326,84.1a35.326,35.326,0,0,1-9.492-1.75,16,16,0,0,0-3.124-.732,16.906,16.906,0,0,0-3.341.744c-2.46.7-4.566,1.291-5.605.322a1.337,1.337,0,0,1-.41-1.037c.059-1.629,2.963-4.2,4.114-5.148.431-1.509,2.491-8.334,4.99-9.984,2.726-1.812,10.489,1.03,11.367,1.359a.706.706,0,0,1,.414.909.7.7,0,0,1-.914.412c-3.043-1.141-8.473-2.565-10.093-1.5-1.878,1.239-3.858,7.2-4.464,9.4-2.285,2.03-4.078,4.061-4,4.623.417.365,2.8-.305,4.213-.71a17.332,17.332,0,0,1,3.687-.793A15.549,15.549,0,0,1,91.223,81c3.967,1.144,10.6,3.05,14.569.218a.706.706,0,0,1,.822,1.149,10.633,10.633,0,0,1-6.287,1.741" transform="translate(107.2 90.186)" fill="#1a1a1a"/>
            <path id="Path_248" data-name="Path 248" d="M95.823,97.393H46.5a.706.706,0,1,1,0-1.411H95.823a.706.706,0,1,1,0,1.411" transform="translate(62.652 131.319)" fill="#1a1a1a"/>
            <path id="Path_249" data-name="Path 249" d="M175.046,106.69H152.281a.706.706,0,1,1,0-1.411h22.765a.706.706,0,1,1,0,1.411" transform="translate(207.376 144.038)" fill="#1a1a1a"/>
            <path id="Path_250" data-name="Path 250" d="M55.383,150.4H5.848a.7.7,0,1,1,0-1.409H55.383a.7.7,0,1,1,0,1.409" transform="translate(7.032 203.841)" fill="#1a1a1a"/>
            <path id="Path_251" data-name="Path 251" d="M23.421,156.139H6.851a.706.706,0,0,1,0-1.411h16.57a.706.706,0,1,1,0,1.411" transform="translate(8.407 211.692)" fill="#1a1a1a"/>
            <path id="Path_252" data-name="Path 252" d="M212.063,174.976H170.007a.706.706,0,1,1,0-1.411h42.056a.706.706,0,1,1,0,1.411" transform="translate(231.628 237.464)" fill="#1a1a1a"/>
            <path id="Path_253" data-name="Path 253" d="M85.132,177.666H43.076a.706.706,0,1,1,0-1.411H85.132a.706.706,0,1,1,0,1.411" transform="translate(57.966 241.145)" fill="#1a1a1a"/>
            <path id="Path_254" data-name="Path 254" d="M215.2,145.589H190.633a.706.706,0,1,1,0-1.411H215.2a.706.706,0,1,1,0,1.411" transform="translate(259.85 197.258)" fill="#1a1a1a"/>
            <path id="Path_255" data-name="Path 255" d="M198.651,150.818H187.765a.706.706,0,0,1,0-1.411h10.886a.706.706,0,1,1,0,1.411" transform="translate(255.926 204.412)" fill="#1a1a1a"/>
            <path id="Path_256" data-name="Path 256" d="M80.784,72.178c-.8-.665-.7-1.1-.372-1.307a8.269,8.269,0,0,1,2.442-.938,11.916,11.916,0,0,1,4.026.322.706.706,0,0,1-.332,1.374,10.615,10.615,0,0,0-3.405-.315,6.887,6.887,0,0,0-1.984.758.724.724,0,0,1-.374.107" transform="translate(109.68 95.563)" fill="#1a1a1a"/>
            <path id="Path_257" data-name="Path 257" d="M244.813,30.958H97.84a.706.706,0,0,1-.095-1.4l32.394-4.526c.4-1.823,2.247-7.5,9.9-7.5,4.253.2,6.685.81,8.1,1.854a13.293,13.293,0,0,1,3.827-7.694c4.064-4.076,10.905-6.143,20.335-6.143.763,0,1.544.014,2.356.043,10.827.372,18,2.854,21.313,7.374a10.168,10.168,0,0,1,1.968,5.771c1.715-2.179,4.715-4.4,9.814-4.4a21.288,21.288,0,0,1,4.2.452c11.246,2.3,11.744,10.067,11.609,12.537l21.321,2.226a.705.705,0,0,1-.073,1.407M108,29.547H231.243l-8.523-.89c-.554-1.205.931-10.032-11.047-12.485a19.83,19.83,0,0,0-3.917-.424c-6.934,0-9.477,4.566-10.252,6.527-.438,1.2-.815,1.376-1.165,1.26a.715.715,0,0,1-.467-.834c.763-2.558,1.212-5.835-1.037-8.9-3.045-4.156-9.847-6.444-20.219-6.8-.8-.026-1.565-.04-2.311-.04-9.042,0-15.545,1.928-19.336,5.726a11.944,11.944,0,0,0-3.533,8.383,2.488,2.488,0,0,1,.033,1.551c-1.359-.126-1.433-.554-1.445-1.276-.343-.7-1.724-2.1-7.225-2.38-8.466-.488-9.326,6.482-9.352,6.771C130.84,26.357,108,29.547,108,29.547" transform="translate(132.899 7.584)" fill="#1a1a1a"/>
            <path id="Path_258" data-name="Path 258" d="M212.3,56.794H151.889a.7.7,0,0,1-.7-.642.711.711,0,0,1,.583-.76l17.96-3.119a7.269,7.269,0,0,1,1.8-4.627c1.873-2.105,4.916-3.1,9.3-3,9.889.275,11.734,4.779,12.078,6.389L212.455,55.4a.7.7,0,0,1-.154,1.392m-52.227-1.409h45.833L192.129,52.3c-.561-.874-.945-5.963-11.334-6.25-4.163-.009-6.714.848-8.213,2.527a5.892,5.892,0,0,0-1.43,4.2.7.7,0,0,1-.58.779Z" transform="translate(206.842 61.069)" fill="#1a1a1a"/>
            <path id="Path_259" data-name="Path 259" d="M117.274,69.991H11.379a.706.706,0,0,1-.085-1.407l36.337-4.3c.81-1.8,4.582-8.748,14.5-8.748,7.318,0,10.283,1.916,11.476,3.349,1.762-3.836,7.843-13.967,22.128-11.635,5.972.966,10.017,3.235,12.028,6.737a11.8,11.8,0,0,1,.961,8.783l10.216,1.395a.71.71,0,0,1,.6.8.675.675,0,0,1-.8.6l-11.038-1.509c-.547-.995,1.1-5.43-1.177-9.38-1.793-3.107-5.5-5.139-11.021-6.036C79.244,46.022,74.417,60.584,74.37,60.731,73,60.6,72.179,56.949,62.129,56.949c-10.3,0-13.221,7.886-13.342,8.222-.58.467-25.439,3.41-25.439,3.41h93.926a.7.7,0,1,1,0,1.409" transform="translate(14.602 64.173)" fill="#1a1a1a"/>
            <path id="Path_260" data-name="Path 260" d="M88.271,52.3a.7.7,0,0,1-.6-.341l-8.1-13.3-8.949,8.895a.731.731,0,0,1-.753.159.713.713,0,0,1-.457-.618L67.829,22.765a.714.714,0,0,1,.324-.644l4.13-2.662a.7.7,0,0,1,.592-.083.716.716,0,0,1,.445.4l6.666,15.334L94.255,21.382a.713.713,0,0,1,.909-.064l7.732,5.6a.712.712,0,0,1,.2.938l-14.209,24.1a.7.7,0,0,1-.613.35M80.105,36.939a.681.681,0,0,1,.2.216l7.955,13.058L101.54,27.686l-6.728-4.869L80.238,36.839a.776.776,0,0,1-.133.1M69.273,23.09l1.449,22.355L79.2,37.019a.769.769,0,0,1,.142-.107.747.747,0,0,1-.251-.3l-6.74-15.5Z" transform="translate(92.799 26.467)" fill="#1a1a1a"/>
            <path id="Path_261" data-name="Path 261" d="M69.644,69.766a.7.7,0,0,1-.137-.014.713.713,0,0,1-.561-.834l7.509-38.53a.712.712,0,0,1,1.4.272L70.343,69.19a.714.714,0,0,1-.7.575" transform="translate(94.311 40.789)" fill="#1a1a1a"/>
            <path id="Path_262" data-name="Path 262" d="M91.594,18.162a.715.715,0,0,1-.661-.452C88.041,10.364,74.99,6.515,72.016,5.724c-.545,1.426-1.98,4.966-3.344,6.579a9.053,9.053,0,0,0-.483,3.287.712.712,0,0,1-.675.746.738.738,0,0,1-.744-.673,10.228,10.228,0,0,1,.625-4,.83.83,0,0,1,.126-.2c1.532-1.722,3.368-6.778,3.386-6.825a.7.7,0,0,1,.829-.452c.691.161,16.992,4.052,20.518,13a.713.713,0,0,1-.4.924.759.759,0,0,1-.26.05" transform="translate(91.337 5.7)" fill="#1a1a1a"/>
            <path id="Path_263" data-name="Path 263" d="M101.658,23.659l-1.231-.713c.736-1.269,1.4-4.836.062-9-1.018-3.154-3.517-7.493-9.634-10.238-11.265-5.058-16.371-.189-16.582.021a.738.738,0,0,1-.372.2A6.568,6.568,0,0,0,69.285,6.94c-2.7,4.383-.587,11.81-.566,11.883l-1.364.4c-.095-.329-2.307-8.1.718-13.022a7.888,7.888,0,0,1,5.362-3.63c1.054-.921,6.785-5.193,18.005-.156,6.593,2.958,9.293,7.668,10.4,11.1,1.34,4.149.924,8.246-.18,10.15" transform="translate(90.964 0.001)" fill="#1a1a1a"/>
            <path id="Path_264" data-name="Path 264" d="M73.362,10.587a37.049,37.049,0,0,1,14.4,4.589c3.64,2.105,8.542.495,9.733-3.538a6.592,6.592,0,0,0-.334-4.544S87.739-.931,80.381.53a22.23,22.23,0,0,0-4.4.919c-.954.5-4.443,2.091-4.443,2.091s-2.572.992-3.325,2.64a17.083,17.083,0,0,0-1.385,7.431c.258,2.368.171,5.3,1.885,2.588a31.777,31.777,0,0,0,2.825-6.105Z" transform="translate(91.372 0.481)" fill="#1a1a1a"/>
          </g>
        </g>
      </g>
    </g>
  </g>
</svg>
