<svg xmlns="http://www.w3.org/2000/svg" xmlns:xlink="http://www.w3.org/1999/xlink" width="640" height="420" viewBox="0 0 640 420">
  <defs>
    <clipPath id="clip-path">
      <rect id="Rectangle_6" data-name="Rectangle 6" width="583.298" height="420" fill="none"/>
    </clipPath>
    <clipPath id="clip-ilustracja-1">
      <rect width="640" height="420"/>
    </clipPath>
  </defs>
  <g id="ilustracja-1" clip-path="url(#clip-ilustracja-1)">
    <g id="Group_21" data-name="Group 21" transform="translate(28)">
      <g id="Group_2" data-name="Group 2" clip-path="url(#clip-path)">
        <path id="Path_3" data-name="Path 3" d="M49.7,127.871H23.019A16.108,16.108,0,0,1,6.957,111.809V92.028A16.108,16.108,0,0,1,23.019,75.966H49.7A16.109,16.109,0,0,1,65.766,92.028v19.781A16.109,16.109,0,0,1,49.7,127.871" transform="translate(13.675 149.323)" fill="#1a1a1a"/>
        <path id="Path_4" data-name="Path 4" d="M257.786,179.192H44.9a22.506,22.506,0,0,1-22.441-22.438v-134A22.506,22.506,0,0,1,44.9.312h212.89A22.508,22.508,0,0,1,280.227,22.75v134a22.508,22.508,0,0,1-22.441,22.438" transform="translate(44.139 0.613)" fill="#fff"/>
        <path id="Path_5" data-name="Path 5" d="M312.8,225.787H148.634A22.505,22.505,0,0,1,126.2,203.349V79.977a22.508,22.508,0,0,1,22.438-22.441H312.8A22.508,22.508,0,0,1,335.24,79.977V203.349A22.506,22.506,0,0,1,312.8,225.787" transform="translate(248.059 113.096)" fill="#ff9d00"/>
        <path id="Path_6" data-name="Path 6" d="M286.087,119.657s-1.865-.816-17.6-8.977S244.825,100.193,239,99.609s-13.983,1.05-18.761,3.031-20.4,7.809-27.275,8.743S177.929,109.4,174.551,108,146.1,91.3,146.1,91.3s-5.537,60.974-7.648,80.684H264.173a22.212,22.212,0,0,0,22.148-22.145V120.3c-.148-.4-.234-.641-.234-.641" transform="translate(272.14 179.469)" fill="#1a1a1a"/>
        <path id="Path_7" data-name="Path 7" d="M169.447,120.712s-19.734,3.855-33.559,10.193-26.258,13.678-26.258,13.678,13.079-32.91,15.588-39.728a103.847,103.847,0,0,1,7.491-14.977s-6.421-8.28-6.533-12.34c0,0-13.147-1.655-22.026-7.975,0,0-6.424-2.7-7.6-5.291,0,0-13.129-9.766-12.221-18.42,0,0-9.211,14.606-20.14,43.821s-17.331,41.054-12.3,73.133,32.64,40.7,38.414,42.065,16.044,4.253,26.466,2.284a105.759,105.759,0,0,0,20.107-6.234l-3.022,23.411L122.566,328.32H272.186L266.365,269.8s6.032,15.2,15.73,20.973a33.6,33.6,0,0,0,33.322.483c11.169-5.982,16.631-17.628,17.7-26.489s.7-20.976-2.954-37.2-15.211-65.74-15.211-65.74l-34.322-16.418s-12.017-18.1-30.481-22.308L231.684,118.9Z" transform="translate(98.575 90.132)" fill="#ff9d00"/>
        <path id="Path_8" data-name="Path 8" d="M185.647,125.831s1.2-11.231-4.107-19.493-9.351-12.732-10.709-15.152-.756-13.087-1.7-17.156-2.221-10.282-9.446-9.078-9.217,10.667-8.081,16.827,5.54,20.605,5.294,22.6-11.762,9.226-17.9,11.522-17.88,6.456-20.929,11.166-2,10.9,3.9,11.48c0,0-7.592,3.971-6.047,9.573a6.251,6.251,0,0,0,6.768,4.89s-1.287,8.239,7.1,9.282,24.375-4.727,29.9-7.7,15.214-8.034,19.407-14.155,6.735-13.289,6.554-14.6" transform="translate(227.449 127.374)" fill="#fff"/>
        <path id="Path_9" data-name="Path 9" d="M100.392,68.761s-12.66-2.414-13.022,8.654S98.313,88.4,101.664,86.122c0,0-.219,25.9,25.469,25.5s26.388-21.824,26.388-21.824V86.6s11.628,3.609,13.684-4.03.747-10.685-2.218-12.334-10.522-1.145-10.522-1.145V66.445a68.82,68.82,0,0,0-22.747-15.113c-13.945-5.6-21.024-6.4-21.024-6.4S105.084,59.2,101.2,62.254Z" transform="translate(171.722 88.327)" fill="#fff"/>
        <path id="Path_10" data-name="Path 10" d="M103.477,64.039v7.227l-13.1,13.7,9.191,50.576L121.9,103.373l22.406,32.169,8.959-51.629-12.91-13,.092-6.222Z" transform="translate(177.645 125.88)" fill="#fff"/>
        <path id="Path_11" data-name="Path 11" d="M200.3,88.33a18.46,18.46,0,1,1-18.458-18.461A18.461,18.461,0,0,1,200.3,88.33" transform="translate(321.146 137.339)" fill="#fff"/>
        <path id="Path_12" data-name="Path 12" d="M271.985,194.666H36.915a22.505,22.505,0,0,1-22.438-22.438V130.735a22.506,22.506,0,0,1,22.438-22.441h235.07a22.5,22.5,0,0,1,22.438,22.441v41.493a22.5,22.5,0,0,1-22.438,22.438" transform="translate(28.457 212.869)" fill="#fff"/>
        <path id="Path_13" data-name="Path 13" d="M52.772,132.713a14.87,14.87,0,1,1-14.87-14.87,14.868,14.868,0,0,1,14.87,14.87" transform="translate(45.273 231.639)" fill="#1a1a1a"/>
        <path id="Path_14" data-name="Path 14" d="M254.657.312H48.025a25.643,25.643,0,0,0-25.57,25.567V43.107H280.224V25.879A25.644,25.644,0,0,0,254.657.312" transform="translate(44.139 0.613)" fill="#1a1a1a"/>
        <path id="Path_15" data-name="Path 15" d="M91.944,80.318s-2.117-12.1-1.975-15.582,2.678-13.087,5.472-14.49a17.738,17.738,0,0,1,3.76-1.572s6.382-10.261,21.24-10.347,25.721,5.795,30.14,13.666,3.511,19.888,3.5,23.438a20.354,20.354,0,0,1-.827,5.937l-3.9.231-.3-2.162s-12.5-12.248-26.386-16.64-17.085-4.87-17.085-4.87-4.419,12.945-9.493,17.317L95.882,81.6Z" transform="translate(176.834 75.337)" fill="#1a1a1a"/>
        <path id="Path_16" data-name="Path 16" d="M103.3,86.567s8.855,4.623,12.726,10.605,4.858,20.015-2.892,20.561-11.216-8.443-12.192-11.047-1.317-5.792-7.337-7.823-19.449-3.953-21.887-7.957-6.48-6.391-6.293-19.4c0,0-4.182-13.473,2.026-19.185s13.283-5.534,25.958-5.187S115.192,41.165,121,38.707s14.873-7.272,19.911-4.582,1.4,9.692,1.4,9.692,4.484,1.563,5.854,5.234-3.79,10.739-3.79,10.739,2.98.8,3.763,5.78-6.456,9.57-12.844,11.3-22.124,3.734-25.445,4-8.63,2.479-6.542,5.7" transform="translate(125.896 65.518)" fill="#fff"/>
        <path id="Path_17" data-name="Path 17" d="M32.749,80.475c-1.59-2.722-4.193-2.722-5.789,0L14.748,101.4c-1.59,2.722-.308,4.953,2.841,4.953H42.133c3.155,0,4.434-2.23,2.841-4.95Z" transform="translate(27.646 154.174)" fill="#ff9d00"/>
        <path id="Path_18" data-name="Path 18" d="M114.8,13.684A9.084,9.084,0,1,1,105.714,4.6a9.082,9.082,0,0,1,9.084,9.084" transform="translate(189.942 9.042)" fill="#ff9d00"/>
        <path id="Path_19" data-name="Path 19" d="M134.408,19.141a9.373,9.373,0,1,1-9.374-9.374,9.374,9.374,0,0,1,9.374,9.374" transform="translate(227.352 19.199)" fill="#ff9d00"/>
        <path id="Path_20" data-name="Path 20" d="M205.841,46.557a9.373,9.373,0,1,1-9.374-9.374,9.376,9.376,0,0,1,9.374,9.374" transform="translate(367.766 73.089)" fill="#ff9d00"/>
        <path id="Path_21" data-name="Path 21" d="M104.425,13.684A9.084,9.084,0,1,1,95.344,4.6a9.079,9.079,0,0,1,9.081,9.084" transform="translate(169.552 9.042)" fill="#ccc"/>
        <path id="Path_22" data-name="Path 22" d="M94.079,13.684A9.084,9.084,0,1,1,84.995,4.6a9.08,9.08,0,0,1,9.084,9.084" transform="translate(149.215 9.042)" fill="#fff"/>
        <path id="Path_23" data-name="Path 23" d="M68.2,43.848s-5.7,1.032-6.495,5.946S69.7,65.465,71.949,66.6H73.53s-4.422-9.962-2.969-15.383Z" transform="translate(121.198 86.19)" fill="#1a1a1a"/>
        <path id="Path_24" data-name="Path 24" d="M70.219,54.645s5.816.077,9.775,1.732a36.919,36.919,0,0,1,5.688,2.814,26.4,26.4,0,0,1-15.463-4.546" transform="translate(138.027 107.414)" fill="#1a1a1a"/>
        <path id="Path_25" data-name="Path 25" d="M81.477,49.54s-4.757,1.521-4.312,4.179c0,0,8.307,5.626,9.879,7.287S89.754,63.8,89.754,63.8s.142-7.631-8.277-14.256" transform="translate(151.621 97.379)" fill="#1a1a1a"/>
        <path id="Path_26" data-name="Path 26" d="M170.35,32.9a9.551,9.551,0,1,1-9.552-9.549A9.55,9.55,0,0,1,170.35,32.9" transform="translate(297.302 45.89)" fill="#1a1a1a"/>
        <path id="Path_27" data-name="Path 27" d="M139.707,81.328l3.9-.234a20.374,20.374,0,0,0,.83-5.934c.015-3.55.919-15.567-3.5-23.438C137.216,45.1,128.921,39.9,117.527,38.465,125.2,41.787,133.375,46.991,131.7,53.7c-2.447,9.787-36.831,3.262-36.831,3.262l.872,1.237c.193-.543,3.4-.065,17.281,4.327s26.386,16.64,26.386,16.64Z" transform="translate(186.48 75.609)" fill="#fff"/>
        <path id="Path_28" data-name="Path 28" d="M281.862,121.656c-.421-.1-32.539-16.513-32.539-16.513-7.651-3.929-20.49-4.87-28.636-2.106L196.611,111.2c-8.562,2.912-21.857,1.51-29.636-3.123L141.168,92.705a.921.921,0,1,1,.94-1.584l25.81,15.377c7.379,4.389,19.992,5.715,28.1,2.957l24.075-8.164c8.553-2.9,22.035-1.91,30.066,2.212l32.118,16.412a.921.921,0,0,1-.418,1.741" transform="translate(276.599 178.858)" fill="#1a1a1a"/>
        <path id="Path_29" data-name="Path 29" d="M180.519,110.08A19.382,19.382,0,1,1,199.89,90.7a19.4,19.4,0,0,1-19.372,19.381m0-36.92A17.537,17.537,0,1,0,198.046,90.7a17.563,17.563,0,0,0-17.527-17.539" transform="translate(316.725 140.183)" fill="#1a1a1a"/>
        <path id="Path_30" data-name="Path 30" d="M145.242,132.212c-.756-.394-22.409-31.478-22.409-31.478l-21.581,31.083C99.589,131.465,89.9,80.885,89.9,80.885c.252-.824,13.856-14.523,13.856-14.523,1.453.19,19.075,30.9,19.075,30.9L140.58,66.205c1.459-.19,14.274,12.806,14.274,12.806.252.8-8.7,52.436-8.7,52.436-.777.759-.845.765-.91.765M91.8,81.019l9.185,47.943,20.757-29.888L104.209,68.524Zm32.121,18.052,20.789,29.849,8.494-48.951L141.58,68.178Z" transform="translate(176.713 130.133)" fill="#1a1a1a"/>
        <path id="Path_31" data-name="Path 31" d="M105.961,68.847a19.391,19.391,0,0,1-4.033-.418.922.922,0,0,1,.421-1.794c.062.015,6.005,1.355,9.718-1.225a7.177,7.177,0,0,0,2.909-5.264.908.908,0,0,1,1.032-.8.92.92,0,0,1,.8,1.029,8.951,8.951,0,0,1-3.7,6.554,12.641,12.641,0,0,1-7.153,1.916" transform="translate(198.96 116.641)" fill="#1a1a1a"/>
        <path id="Path_32" data-name="Path 32" d="M110.282,210.479a75,75,0,0,1-20.952-3.227C66.191,200.7,52.187,180.861,49.889,151.4c-1.637-20.985,6.127-41.561,13.945-58.913,2.978-6.622,5.148-12.061,7.251-17.319C74.958,65.47,78.3,57.1,85.2,45.312a.924.924,0,0,1,1.6.934c-6.833,11.664-10.157,19.977-14,29.606-2.112,5.276-4.288,10.733-7.287,17.391-7.714,17.144-15.389,37.444-13.784,58.011,2.233,28.636,15.765,47.9,38.1,54.221,12.355,3.5,26.652,5.644,47.5-2.266a.924.924,0,0,1,.658,1.726c-10.733,4.072-19.769,5.543-27.711,5.543" transform="translate(97.632 88.178)" fill="#1a1a1a"/>
        <path id="Path_33" data-name="Path 33" d="M69.835,129.925a.945.945,0,0,1-.91-1.056c2-13.509,7.153-25.22,9.354-30.22.383-.872.688-1.56.884-2.052L86.909,77.3a148.013,148.013,0,0,1,7.236-14.8l.872-1.628a.922.922,0,0,1,1.628.866l-.872,1.631a145.9,145.9,0,0,0-7.15,14.615l-7.746,19.3c-.2.5-.516,1.213-.907,2.1-2.355,5.353-7.257,16.483-9.22,29.746a.924.924,0,0,1-.913.789" transform="translate(135.462 118.699)" fill="#1a1a1a"/>
        <path id="Path_34" data-name="Path 34" d="M4.088,34.5A4.02,4.02,0,1,0,.07,30.477,4.018,4.018,0,0,0,4.088,34.5" transform="translate(0.138 52.004)" fill="#1a1a1a"/>
        <path id="Path_35" data-name="Path 35" d="M14.759,34.841a4.228,4.228,0,1,0-4.226-4.226,4.226,4.226,0,0,0,4.226,4.226" transform="translate(20.704 51.866)" fill="#1a1a1a"/>
        <path id="Path_36" data-name="Path 36" d="M25.085,34.323a3.916,3.916,0,1,0-3.915-3.915,3.915,3.915,0,0,0,3.915,3.915" transform="translate(41.613 52.072)" fill="#1a1a1a"/>
        <path id="Path_37" data-name="Path 37" d="M4.226,45.374A4.228,4.228,0,1,0,0,41.145a4.229,4.229,0,0,0,4.226,4.229" transform="translate(0 72.57)" fill="#1a1a1a"/>
        <path id="Path_38" data-name="Path 38" d="M14.9,45.719a4.435,4.435,0,1,0-4.434-4.437A4.435,4.435,0,0,0,14.9,45.719" transform="translate(20.567 72.433)" fill="#1a1a1a"/>
        <path id="Path_39" data-name="Path 39" d="M25.222,45.2A4.124,4.124,0,1,0,21.1,41.079,4.123,4.123,0,0,0,25.222,45.2" transform="translate(41.475 72.639)" fill="#1a1a1a"/>
        <path id="Path_40" data-name="Path 40" d="M4.02,55.386A3.915,3.915,0,1,0,.1,51.472,3.917,3.917,0,0,0,4.02,55.386" transform="translate(0.206 93.481)" fill="#1a1a1a"/>
        <path id="Path_41" data-name="Path 41" d="M14.69,55.732a4.122,4.122,0,1,0-4.122-4.122,4.123,4.123,0,0,0,4.122,4.122" transform="translate(20.773 93.343)" fill="#1a1a1a"/>
        <path id="Path_42" data-name="Path 42" d="M25.037,55.273a3.846,3.846,0,1,0-3.843-3.846,3.846,3.846,0,0,0,3.843,3.846" transform="translate(41.66 93.526)" fill="#1a1a1a"/>
        <path id="Path_43" data-name="Path 43" d="M498.458,142.844H24.222a.922.922,0,0,1,0-1.845H498.458a.922.922,0,0,1,0,1.845" transform="translate(45.8 277.156)" fill="#1a1a1a"/>
        <path id="Path_44" data-name="Path 44" d="M97.317,53.017c.735-.116,1.231.2,1.444,2.853.234,2.96-.534,3.482-1.2,3.455s-1.332-.937-1.3-3.055.086-3.1,1.05-3.253" transform="translate(189.226 104.175)" fill="#1a1a1a"/>
        <path id="Path_45" data-name="Path 45" d="M97.539,73.506a10.849,10.849,0,0,1-7.9-3.571A10.535,10.535,0,0,1,90.57,55.06a10.586,10.586,0,0,1,10.869-1.886.922.922,0,1,1-.679,1.714,8.89,8.89,0,0,0-2.678-.6,8.695,8.695,0,0,0-1.088,17.355,8.995,8.995,0,0,0,4.546-.958.921.921,0,1,1,.848,1.634,10.535,10.535,0,0,1-4.849,1.186" transform="translate(171.01 103.055)" fill="#1a1a1a"/>
        <path id="Path_46" data-name="Path 46" d="M90.9,66c-1.044-.762-.967-1.343-.563-1.652l5.522-4.268L89.675,55.5a.922.922,0,0,1,1.1-1.483l7.165,5.306c.015,1.471-6.474,6.48-6.474,6.48A.913.913,0,0,1,90.9,66" transform="translate(175.532 105.824)" fill="#1a1a1a"/>
        <path id="Path_47" data-name="Path 47" d="M115.035,73.5a10.538,10.538,0,0,1-4.852-1.186.924.924,0,0,1-.394-1.246.937.937,0,0,1,1.249-.389,8.694,8.694,0,1,0,3.455-16.4,8.594,8.594,0,0,0-2.853.676.923.923,0,0,1-.724-1.7,10.316,10.316,0,0,1,3.461-.813,10.534,10.534,0,1,1,1.32,21.027c-.222.018-.442.027-.661.027" transform="translate(215.604 103.056)" fill="#1a1a1a"/>
        <path id="Path_48" data-name="Path 48" d="M116.876,65.994c-.563-.193-7.052-5.2-7.052-5.2.015-1.471,7.183-6.777,7.183-6.777a.931.931,0,0,1,1.29.193.92.92,0,0,1-.193,1.29l-6.186,4.579,5.522,4.265a.922.922,0,0,1-.563,1.652" transform="translate(215.877 105.828)" fill="#1a1a1a"/>
        <path id="Path_49" data-name="Path 49" d="M155.263,221.27c-11.614,0-24.173-5.774-32.45-26.059a.923.923,0,0,1,1.708-.7c8.544,20.941,22.607,28.758,41.8,23.254,32.311-9.274,23.423-50.265,20.5-63.735C182.559,134.35,171,85.6,170.886,85.111A.92.92,0,0,1,171.574,84a.929.929,0,0,1,1.109.685c.116.486,11.673,49.257,15.946,68.955,3.013,13.885,12.177,56.149-21.792,65.9a42.31,42.31,0,0,1-11.575,1.732" transform="translate(241.273 165.072)" fill="#1a1a1a"/>
        <path id="Path_50" data-name="Path 50" d="M121.229,101.547H117.54c-4.635,0-11.272-.955-16.563-5.492-4.06-3.482-6.747-9.072-8.215-17.088-.967-5.288-1.183-22.053-1.1-27.533a.922.922,0,0,1,1.845.03c-.089,5.9.166,22.251,1.068,27.171,1.388,7.586,3.873,12.824,7.6,16.018,4.867,4.176,11.038,5.051,15.365,5.051h3.689c4.324,0,10.5-.875,15.362-5.051,3.725-3.194,6.207-8.431,7.6-16.018.973-5.312,1-18.524.928-23.168a.923.923,0,0,1,.907-.937.866.866,0,0,1,.937.91c.071,4.692.042,18.067-.955,23.527-1.471,8.016-4.155,13.606-8.218,17.088-5.291,4.537-11.925,5.492-16.56,5.492" transform="translate(180.147 99.317)" fill="#1a1a1a"/>
        <path id="Path_51" data-name="Path 51" d="M95.406,69.989a.926.926,0,0,1-.925-.931l.033-2.989a.921.921,0,0,1,1.842.018l-.027,2.992a.923.923,0,0,1-.922.91" transform="translate(185.718 128.079)" fill="#1a1a1a"/>
        <path id="Path_52" data-name="Path 52" d="M107.84,69.644a.924.924,0,0,1-.922-.955l.095-2.639a.861.861,0,0,1,.955-.89.926.926,0,0,1,.887.958l-.092,2.639a.92.92,0,0,1-.922.887" transform="translate(210.162 128.074)" fill="#1a1a1a"/>
        <path id="Path_53" data-name="Path 53" d="M150.641,82.6a.948.948,0,0,1-.91-1.065c2.049-13.1.1-21.187-2.076-27.364-4.552-12.954-23.574-15.786-35.638-13.684-9.134,1.607-14.2,8.974-14.253,9.048A13.514,13.514,0,0,0,92.8,52.073a.923.923,0,1,1-1.222-1.385A11.272,11.272,0,0,1,96.453,48.2,25.251,25.251,0,0,1,111.7,38.674c12.687-2.227,32.785.916,37.7,14.891,2.245,6.394,4.259,14.751,2.15,28.26a.921.921,0,0,1-.91.78" transform="translate(179.395 74.742)" fill="#1a1a1a"/>
        <path id="Path_54" data-name="Path 54" d="M92.726,64.878c-.979-1-3.141-8.82-3.072-16.931a.922.922,0,0,1,1.845.012,65.307,65.307,0,0,0,2.117,15.748.925.925,0,0,1-.641,1.139.9.9,0,0,1-.249.033" transform="translate(176.226 92.447)" fill="#1a1a1a"/>
        <path id="Path_55" data-name="Path 55" d="M75.177,153.577a.942.942,0,0,1-.916-1.017l1.726-16.51A.871.871,0,0,1,77,135.231a.92.92,0,0,1,.821,1.011L76.1,152.753a.925.925,0,0,1-.919.824" transform="translate(145.961 265.797)" fill="#1a1a1a"/>
        <path id="Path_56" data-name="Path 56" d="M78.985,138.6a.945.945,0,0,1-.916-1.041l6.044-46.816a.924.924,0,0,1,1.833.234L79.9,137.8a.921.921,0,0,1-.913.8" transform="translate(153.442 176.787)" fill="#1a1a1a"/>
        <path id="Path_57" data-name="Path 57" d="M134.874,227.428a.924.924,0,0,1-.919-.836c-6.287-66.668-11.053-106.346-13.942-127.9a.921.921,0,0,1,.792-1.038.908.908,0,0,1,1.038.792c2.892,21.566,7.657,61.274,13.95,127.971a.924.924,0,0,1-.833,1.005l-.086,0" transform="translate(235.888 191.946)" fill="#1a1a1a"/>
        <path id="Path_58" data-name="Path 58" d="M95.079,56.357c-.795-.228-1.041-.756-.866-1.237,1.652-4.552,7.969-5.869,11.717-5.03a.923.923,0,0,1,.7,1.1.9.9,0,0,1-1.1.7c-3.084-.679-8.351.469-9.582,3.861a.918.918,0,0,1-.866.6" transform="translate(185.087 97.994)" fill="#1a1a1a"/>
        <path id="Path_59" data-name="Path 59" d="M114.652,56.358c-2.1-4-7.373-5.148-10.448-4.466a.922.922,0,0,1-.4-1.8c3.752-.842,10.065.477,11.717,5.03a.922.922,0,0,1-.552,1.18.839.839,0,0,1-.314.056" transform="translate(202.621 97.993)" fill="#1a1a1a"/>
        <path id="Path_60" data-name="Path 60" d="M96.9,47.7c-.753-.391-3.722-4.585-3.722-4.585a.922.922,0,1,1,1.507-1.065l2.972,4.2a.924.924,0,0,1-.225,1.287.908.908,0,0,1-.531.166" transform="translate(182.818 81.887)" fill="#1a1a1a"/>
        <path id="Path_61" data-name="Path 61" d="M161.4,98.028C143.64,77.313,125.775,73.4,112.112,72.274a.926.926,0,0,1-.839-1,.9.9,0,0,1,.993-.842c14.019,1.163,32.352,5.172,49.844,26.08a.928.928,0,0,1-.116,1.3.912.912,0,0,1-.593.214" transform="translate(218.719 138.439)" fill="#1a1a1a"/>
        <path id="Path_62" data-name="Path 62" d="M42.748,107.83H18.2a4.333,4.333,0,0,1-4-1.919,4.333,4.333,0,0,1,.362-4.419L26.784,80.567c1.88-3.221,5.492-3.227,7.373,0l12.23,20.926a3.911,3.911,0,0,1-3.639,6.338M30.47,79.914A2.65,2.65,0,0,0,28.377,81.5L16.161,102.423a2.644,2.644,0,0,0-.359,2.568,2.656,2.656,0,0,0,2.4.994H42.748a2.121,2.121,0,0,0,2.043-3.562L32.564,81.5a2.645,2.645,0,0,0-2.094-1.584" transform="translate(27.031 153.614)" fill="#1a1a1a"/>
        <path id="Path_63" data-name="Path 63" d="M125.617,105.793a13.561,13.561,0,0,1-6.794-1.48,6.563,6.563,0,0,1-3.212-4.247c-1.512-6.18,6.174-10.424,6.5-10.6a.923.923,0,1,1,.881,1.622c-.068.039-6.765,3.749-5.59,8.541a4.726,4.726,0,0,0,2.349,3.093c3.049,1.776,8.642,1.649,15.742-.368,9.787-2.776,27.6-11.67,27.773-11.762a.924.924,0,0,1,.827,1.652c-.738.368-18.147,9.066-28.1,11.889a38.964,38.964,0,0,1-10.38,1.661" transform="translate(226.864 175.643)" fill="#1a1a1a"/>
        <path id="Path_64" data-name="Path 64" d="M132.47,163.782c-3.173,0-5.718-.575-7.254-1.862-5.335-4.493-2.559-8.781-2.536-8.826a.925.925,0,0,1,1.542,1.02c-.1.16-1.821,3.022,2.186,6.394,4.232,3.565,20.8.24,34.772-6.963a60.586,60.586,0,0,0,18.488-14.185c4.549-5.32,6.323-12.732,4.991-20.866a40.737,40.737,0,0,0-9.229-19.825c-.451-.531-.9-1.035-1.355-1.53-2.269-2.524-4.419-4.905-4.718-8.68-.13-1.613-.181-3.413-.231-5.276-.2-7.168-.424-15.291-5.335-16.5-3.185-.786-5.925-.148-7.892,1.865-3.583,3.648-4.205,11.1-1.711,20.442.86,3.218,1.8,6.412,2.752,9.6l1.05,3.562a4.741,4.741,0,0,1,.133,3.126,4.619,4.619,0,0,1-1.459,1.773,65.55,65.55,0,0,1-20.718,11.7c-10.326,3.58-16.415,7.488-18.1,11.617a6.345,6.345,0,0,0,.329,5.486,4.361,4.361,0,0,0,2.794,1.99c6.228,1.96,21.869-.94,38.583-10.143a.925.925,0,1,1,.893,1.619c-15.318,8.425-32.145,12.752-40.025,10.285a6.111,6.111,0,0,1-3.9-2.927,8.211,8.211,0,0,1-.386-7.008c1.922-4.706,8.206-8.847,19.2-12.663a63.7,63.7,0,0,0,20.143-11.367,3.051,3.051,0,0,0,.928-1.044,3.23,3.23,0,0,0-.193-1.925l-1.047-3.55c-.952-3.212-1.9-6.421-2.764-9.653-2.666-9.991-1.871-18.088,2.174-22.213,2.417-2.464,5.845-3.295,9.653-2.361,6.272,1.545,6.521,10.412,6.738,18.239.05,1.833.1,3.6.228,5.181.249,3.15,2.1,5.208,4.25,7.592.46.51.925,1.026,1.388,1.566a42.589,42.589,0,0,1,9.644,20.727c1.421,8.68-.5,16.623-5.412,22.364a62.359,62.359,0,0,1-19.04,14.63c-9.609,4.953-21.563,8.594-29.559,8.594" transform="translate(227.084 126.817)" fill="#1a1a1a"/>
        <path id="Path_65" data-name="Path 65" d="M112.571,62.163H82.792a.922.922,0,1,1,0-1.845h29.778a.922.922,0,1,1,0,1.845" transform="translate(160.929 118.565)" fill="#1a1a1a"/>
        <path id="Path_66" data-name="Path 66" d="M280.834,113.487a.919.919,0,0,1-.919-.922V26.5A24.679,24.679,0,0,0,255.267,1.845H48.634A24.677,24.677,0,0,0,23.987,26.5V66.6a.921.921,0,1,1-1.842,0V26.5A26.519,26.519,0,0,1,48.634,0H255.267a26.521,26.521,0,0,1,26.489,26.5v86.069a.92.92,0,0,1-.922.922" transform="translate(43.53 0)" fill="#1a1a1a"/>
        <path id="Path_67" data-name="Path 67" d="M94.239,79.111h-45.6A26.521,26.521,0,0,1,22.144,52.618a.922.922,0,1,1,1.845,0A24.674,24.674,0,0,0,48.636,77.266h45.6a.922.922,0,0,1,0,1.845" transform="translate(43.528 101.617)" fill="#1a1a1a"/>
        <path id="Path_68" data-name="Path 68" d="M249.855,185.939h-103.2a.922.922,0,0,1,0-1.845h103.2a21.25,21.25,0,0,0,21.222-21.222V85.6a.922.922,0,1,1,1.845,0v77.276a23.094,23.094,0,0,1-23.067,23.067" transform="translate(286.458 166.438)" fill="#1a1a1a"/>
        <path id="Path_69" data-name="Path 69" d="M327.934,93.713a.918.918,0,0,1-.922-.922V84.629a21.248,21.248,0,0,0-21.222-21.222H140.341a21.248,21.248,0,0,0-21.222,21.222v7.6a.921.921,0,1,1-1.842,0v-7.6a23.09,23.09,0,0,1,23.064-23.067H305.789a23.094,23.094,0,0,1,23.067,23.067V92.79a.92.92,0,0,1-.922.922" transform="translate(230.527 121.01)" fill="#1a1a1a"/>
        <path id="Path_70" data-name="Path 70" d="M270.822,194.678H35.162A23.094,23.094,0,0,1,12.1,171.611V129.167A23.1,23.1,0,0,1,35.162,106.1h73.009a.922.922,0,0,1,0,1.845H35.162a21.251,21.251,0,0,0-21.225,21.225v42.445a21.248,21.248,0,0,0,21.225,21.219h235.66a21.247,21.247,0,0,0,21.222-21.219V129.167a21.25,21.25,0,0,0-21.222-21.225H176.167a.922.922,0,0,1,0-1.845h94.655a23.1,23.1,0,0,1,23.067,23.07v42.445a23.094,23.094,0,0,1-23.067,23.067" transform="translate(23.775 208.551)" fill="#1a1a1a"/>
        <path id="Path_71" data-name="Path 71" d="M65.99,72.624c-1.079-1.2-5.893-15.086,3.3-22.284,5.1-3.995,11.311-3.817,17.889-3.645,5.208.142,11.115.305,17.308-1.572A133.467,133.467,0,0,0,119.129,39.3c10.048-4.457,18.728-8.307,23.583-4.991,2.254,1.539,3.013,4.475,2.028,7.856-2.482,8.514-14.8,17.984-35.976,18.651a.935.935,0,0,1-.949-.9.919.919,0,0,1,.893-.949c23.316-.735,32.607-11.652,34.259-17.325.765-2.61.291-4.73-1.3-5.813-3.995-2.728-12.643,1.094-21.8,5.151a134.156,134.156,0,0,1-14.852,5.9c-6.477,1.96-12.548,1.794-17.895,1.646-6.5-.172-12.112-.332-16.7,3.259-8.141,6.373-3.615,19.464-3.568,19.6a.923.923,0,0,1-.563,1.177.9.9,0,0,1-.305.053" transform="translate(125.346 64.989)" fill="#1a1a1a"/>
        <path id="Path_72" data-name="Path 72" d="M85.791,61.94q-2.994,0-6.106-.234a.921.921,0,0,1-.848-.991.868.868,0,0,1,.988-.848C98.5,61.285,114.866,55.8,117.932,47.115c.9-2.539.863-4.558-.1-6-1.527-2.3-4.926-2.524-4.962-2.524a.925.925,0,0,1-.869-.976.949.949,0,0,1,.976-.869c.178.015,4.36.288,6.391,3.345,1.3,1.951,1.4,4.52.3,7.637-3.034,8.6-16.833,14.208-33.88,14.211" transform="translate(154.959 72.232)" fill="#1a1a1a"/>
        <path id="Path_73" data-name="Path 73" d="M72.243,62.4a.923.923,0,0,1-.045-1.845c16.317-.869,18.307-16.806,18.328-16.967a.954.954,0,0,1,1.02-.816.927.927,0,0,1,.813,1.023c-.018.175-2.2,17.652-20.069,18.6Z" transform="translate(140.196 84.083)" fill="#1a1a1a"/>
        <path id="Path_74" data-name="Path 74" d="M111.22,101.971a6.758,6.758,0,0,1-2.162-.359c-5.5-1.851-8.977-10.469-10.214-14.087-1.005-2.942-5.276-4.552-7.829-5.513a56.722,56.722,0,0,0-7.9-2.135c-1.6-.353-3.209-.709-4.8-1.139A17.093,17.093,0,0,1,67.02,69.428a30.649,30.649,0,0,1-2.773-15.238.955.955,0,0,1,.976-.869.926.926,0,0,1,.869.973,28.773,28.773,0,0,0,2.586,14.321A15.115,15.115,0,0,0,78.8,76.958c1.56.424,3.135.771,4.706,1.115a58.511,58.511,0,0,1,8.159,2.209c2.856,1.077,7.64,2.877,8.927,6.643.9,2.622,4.2,11.3,9.054,12.939a5.5,5.5,0,0,0,5-.925,8.714,8.714,0,0,0,3.7-7.008c.291-5.264-2.72-11.809-7.156-15.561a49.584,49.584,0,0,0-7.966-5.519,3.074,3.074,0,0,1-1.708-1.779,2.738,2.738,0,0,1,.175-1.682,5.949,5.949,0,0,1,3.9-3.553,15.343,15.343,0,0,1,3.787-.519,111.806,111.806,0,0,0,18.645-2.45c4.626-1.038,9.962-2.482,14.428-5.35,1.518-.973,3.606-2.5,4.217-4.537,1.515-5.071-3.4-7.18-3.609-7.266a.925.925,0,0,1-.5-1.207.936.936,0,0,1,1.207-.5c2.31.958,6.258,4.179,4.665,9.5-.786,2.619-3.221,4.425-4.982,5.558-4.712,3.022-10.237,4.526-15.021,5.6a114.011,114.011,0,0,1-18.785,2.482,14.277,14.277,0,0,0-3.514.448,4.071,4.071,0,0,0-2.72,2.462c3.286,2.559,6.382,4.707,8.971,6.9,4.846,4.1,8.126,11.278,7.809,17.073a10.409,10.409,0,0,1-4.517,8.437,7.935,7.935,0,0,1-4.457,1.5" transform="translate(126.167 82.446)" fill="#1a1a1a"/>
        <path id="Path_75" data-name="Path 75" d="M52.834,128.124H26.152A17.008,17.008,0,0,1,9.165,111.136V91.358A17.006,17.006,0,0,1,26.152,74.374H52.834A17.006,17.006,0,0,1,69.822,91.358v19.778a17.008,17.008,0,0,1-16.987,16.987M26.152,76.219A15.157,15.157,0,0,0,11.01,91.358v19.778a15.155,15.155,0,0,0,15.143,15.14H52.834a15.153,15.153,0,0,0,15.14-15.14V91.358a15.155,15.155,0,0,0-15.14-15.14Z" transform="translate(18.015 146.194)" fill="#1a1a1a"/>
        <path id="Path_76" data-name="Path 76" d="M182.012,61.942h-26.8a7.838,7.838,0,0,1-7.832-7.829v-26.8a7.84,7.84,0,0,1,7.832-7.832h26.8a7.842,7.842,0,0,1,7.832,7.832v26.8a7.84,7.84,0,0,1-7.832,7.829m-26.8-40.621a5.994,5.994,0,0,0-5.988,5.988v26.8a5.991,5.991,0,0,0,5.988,5.985h26.8A5.993,5.993,0,0,0,188,54.113v-26.8a6,6,0,0,0-5.988-5.988Z" transform="translate(289.697 38.285)" fill="#1a1a1a"/>
        <path id="Path_77" data-name="Path 77" d="M215.032,43.544c-5.83-14.87-14.265-24.719-25.941-29.9-16.311-7.245-38.565-4.994-66.14,6.691a.923.923,0,0,1-.715-1.7c28.055-11.892,50.8-14.137,67.605-6.679,11.99,5.32,21,15.822,26.062,30.362a.921.921,0,0,1-.569,1.177.9.9,0,0,1-.3.05" transform="translate(239.165 15.039)" fill="#1a1a1a"/>
        <path id="Path_78" data-name="Path 78" d="M125.647,30.048a10.3,10.3,0,1,1,10.294-10.294,10.308,10.308,0,0,1-10.294,10.294m0-18.746a8.452,8.452,0,1,0,8.452,8.452,8.462,8.462,0,0,0-8.452-8.452" transform="translate(226.739 18.589)" fill="#1a1a1a"/>
        <path id="Path_79" data-name="Path 79" d="M161.364,43.747a10.3,10.3,0,1,1,10.294-10.294,10.306,10.306,0,0,1-10.294,10.294m0-18.746a8.452,8.452,0,1,0,8.449,8.452A8.462,8.462,0,0,0,161.364,25" transform="translate(296.947 45.511)" fill="#1a1a1a"/>
        <path id="Path_80" data-name="Path 80" d="M203.736,69.447a53.708,53.708,0,0,1-22.011-4.306c-12-5.332-21.012-15.851-26.068-30.419a.923.923,0,0,1,1.744-.608c4.953,14.277,13.387,24.149,25.072,29.339,16.32,7.248,38.574,5.006,66.158-6.682a.916.916,0,0,1,1.207.489.929.929,0,0,1-.489,1.213c-17.263,7.307-32.516,10.973-45.612,10.973" transform="translate(305.868 65.847)" fill="#1a1a1a"/>
        <path id="Path_81" data-name="Path 81" d="M197.078,57.464a10.3,10.3,0,1,1,10.3-10.3,10.306,10.306,0,0,1-10.3,10.3m0-18.746a8.452,8.452,0,1,0,8.452,8.449,8.461,8.461,0,0,0-8.452-8.449" transform="translate(367.154 72.48)" fill="#1a1a1a"/>
        <path id="Path_82" data-name="Path 82" d="M177.851,118.627H42.347a.922.922,0,1,1,0-1.845h135.5a.922.922,0,1,1,0,1.845" transform="translate(81.428 229.554)" fill="#1a1a1a"/>
        <path id="Path_83" data-name="Path 83" d="M177.851,126.329H42.347a.922.922,0,1,1,0-1.845h135.5a.922.922,0,0,1,0,1.845" transform="translate(81.428 244.693)" fill="#1a1a1a"/>
        <path id="Path_84" data-name="Path 84" d="M36.313,147.29A15.792,15.792,0,1,1,52.105,131.5,15.809,15.809,0,0,1,36.313,147.29m0-29.737A13.946,13.946,0,1,0,50.261,131.5a13.962,13.962,0,0,0-13.948-13.945" transform="translate(40.337 227.439)" fill="#1a1a1a"/>
        <path id="Path_85" data-name="Path 85" d="M257.37,16.276H27.786a.922.922,0,0,1,0-1.845H257.37a.922.922,0,1,1,0,1.845" transform="translate(52.806 28.366)" fill="#1a1a1a"/>
        <path id="Path_86" data-name="Path 86" d="M106.3,24.3A10.008,10.008,0,1,1,116.307,14.3,10.02,10.02,0,0,1,106.3,24.3m0-18.168a8.16,8.16,0,1,0,8.162,8.162A8.171,8.171,0,0,0,106.3,6.137" transform="translate(189.277 8.431)" fill="#1a1a1a"/>
        <path id="Path_87" data-name="Path 87" d="M104.425,13.684A9.084,9.084,0,1,1,95.344,4.6a9.079,9.079,0,0,1,9.081,9.084" transform="translate(169.552 9.042)" fill="#fff"/>
        <path id="Path_88" data-name="Path 88" d="M95.953,24.3a10.008,10.008,0,1,1,10-10.006,10.017,10.017,0,0,1-10,10.006m0-18.168a8.16,8.16,0,1,0,8.159,8.162,8.171,8.171,0,0,0-8.159-8.162" transform="translate(168.943 8.431)" fill="#1a1a1a"/>
        <path id="Path_89" data-name="Path 89" d="M85.609,24.3A10.008,10.008,0,1,1,95.615,14.3,10.02,10.02,0,0,1,85.609,24.3m0-18.168A8.16,8.16,0,1,0,93.774,14.3a8.169,8.169,0,0,0-8.164-8.162" transform="translate(148.604 8.431)" fill="#1a1a1a"/>
        <path id="Path_90" data-name="Path 90" d="M70.8,95.906c-1.05-.86-.922-1.429-.492-1.7C70.584,94.032,98,76.911,129.77,70.8a.921.921,0,0,1,.347,1.809c-31.43,6.047-58.554,22.984-58.824,23.153a.9.9,0,0,1-.492.142" transform="translate(137.579 139.137)" fill="#1a1a1a"/>
        <path id="Path_91" data-name="Path 91" d="M202.838,180.93h-9.609a.922.922,0,0,1,0-1.845h9.609a.922.922,0,0,1,0,1.845m-19.215,0h-9.606a.922.922,0,1,1,0-1.845h9.606a.922.922,0,1,1,0,1.845m-19.215,0H154.8a.922.922,0,0,1,0-1.845h9.606a.922.922,0,0,1,0,1.845m-19.217,0h-9.609a.922.922,0,0,1,0-1.845h9.609a.922.922,0,1,1,0,1.845m-19.215,0h-9.609a.922.922,0,0,1,0-1.845h9.609a.922.922,0,0,1,0,1.845m-19.215,0H97.157a.922.922,0,0,1,0-1.845h9.606a.922.922,0,1,1,0,1.845m-19.215,0H77.936a.922.922,0,0,1,0-1.845h9.612a.922.922,0,0,1,0,1.845m-16.172-3.043a.92.92,0,0,1-.922-.922v-9.609a.922.922,0,1,1,1.845,0v9.609a.923.923,0,0,1-.922.922m0-19.217a.92.92,0,0,1-.922-.922v-9.606a.922.922,0,1,1,1.845,0v9.606a.923.923,0,0,1-.922.922m0-19.215a.92.92,0,0,1-.922-.922v-9.609a.922.922,0,1,1,1.845,0v9.609a.923.923,0,0,1-.922.922m0-19.217a.919.919,0,0,1-.922-.919V109.71a.922.922,0,1,1,1.845,0v9.609a.923.923,0,0,1-.922.919m177.267-15.8a.921.921,0,0,1-.922-.922V93.909a.922.922,0,0,1,1.845,0v9.609a.921.921,0,0,1-.922.922M71.376,101.023a.92.92,0,0,1-.922-.922V90.492a.922.922,0,1,1,1.845,0V100.1a.923.923,0,0,1-.922.922m177.267-15.8a.919.919,0,0,1-.922-.922V74.694a.922.922,0,1,1,1.845,0V84.3a.92.92,0,0,1-.922.922M71.376,81.809a.92.92,0,0,1-.922-.922V71.278a.922.922,0,1,1,1.845,0v9.609a.923.923,0,0,1-.922.922m177.267-15.8a.921.921,0,0,1-.922-.922V55.477a.922.922,0,1,1,1.845,0v9.609a.921.921,0,0,1-.922.922M71.376,62.594a.922.922,0,0,1-.922-.925V52.063a.922.922,0,1,1,1.845,0v9.606a.926.926,0,0,1-.922.925m177.267-15.8a.921.921,0,0,1-.922-.922V42.446h-4.339a.922.922,0,1,1,0-1.845h5.261a.921.921,0,0,1,.922.922v4.348a.921.921,0,0,1-.922.922M71.376,43.377a.92.92,0,0,1-.922-.922c0-1.441.409-1.854.922-1.854h8.675a.922.922,0,1,1,0,1.845l-7.752.009a.923.923,0,0,1-.922.922m162.4-.931h-9.606a.922.922,0,1,1,0-1.845h9.606a.922.922,0,1,1,0,1.845m-19.212,0h-9.609a.922.922,0,1,1,0-1.845h9.609a.922.922,0,1,1,0,1.845m-19.217,0h-9.609a.922.922,0,1,1,0-1.845h9.609a.922.922,0,1,1,0,1.845m-19.217,0h-9.606a.922.922,0,0,1,0-1.845h9.606a.922.922,0,1,1,0,1.845m-19.212,0h-9.609a.922.922,0,1,1,0-1.845h9.609a.922.922,0,1,1,0,1.845m-19.217,0h-9.609a.922.922,0,0,1,0-1.845H137.7a.922.922,0,1,1,0,1.845m-19.217,0h-9.606a.922.922,0,1,1,0-1.845h9.606a.922.922,0,1,1,0,1.845m-19.215,0H89.657a.922.922,0,1,1,0-1.845h9.609a.922.922,0,1,1,0,1.845" transform="translate(138.489 79.808)" fill="#1a1a1a"/>
        <path id="Path_92" data-name="Path 92" d="M146.029,67.606a87.236,87.236,0,0,0-43.147-21.412c-.976,2.764-4.668,12.5-9.677,17.159a.931.931,0,0,1-1.3-.047.921.921,0,0,1,.05-1.3c5.4-5.024,9.4-17,9.434-17.115,1.216-.6,25.1,2.254,45.277,21.121a.932.932,0,0,1,.042,1.308.921.921,0,0,1-.673.291" transform="translate(180.158 88.088)" fill="#1a1a1a"/>
        <path id="Path_93" data-name="Path 93" d="M106.523,77.273a10.92,10.92,0,0,1-7.96-3.645,2.912,2.912,0,0,1-.626-2.817,21.881,21.881,0,0,1,1.889-3.556c2.073-3.434,4.917-8.144,5.558-15.65a.873.873,0,0,1,1-.842.928.928,0,0,1,.842,1,35.725,35.725,0,0,1-5.816,16.448,20.719,20.719,0,0,0-1.732,3.224,8.254,8.254,0,0,0,7.266,3.98.864.864,0,0,1,.979.86.916.916,0,0,1-.857.979c-.184.012-.359.021-.54.021" transform="translate(192.238 99.774)" fill="#1a1a1a"/>
        <path id="Path_94" data-name="Path 94" d="M101.586,148.969a.92.92,0,0,1-.922-.922V80.566a.922.922,0,1,1,1.845,0v67.481a.918.918,0,0,1-.922.922" transform="translate(197.871 156.553)" fill="#1a1a1a"/>
        <path id="Path_95" data-name="Path 95" d="M75.269,70.411C64.193,62.3,59.276,53.593,62.191,48.026c1.364-2.6,3.479-3.95,7.073-4.514a.915.915,0,0,1,1.053.771.927.927,0,0,1-.768,1.056c-2.989.463-4.647,1.492-5.727,3.547-2.435,4.644,2.387,12.634,12,19.867a.921.921,0,0,1-.555,1.658" transform="translate(120.624 85.503)" fill="#1a1a1a"/>
        <path id="Path_96" data-name="Path 96" d="M89.882,62.948c-6.032-.8-12.391-3.01-19.556-6.768q-.663-.347-1.317-.706a.922.922,0,1,1,.89-1.616q.636.351,1.281.685c6.972,3.66,13.132,5.807,18.826,6.569a.922.922,0,0,1-.125,1.836" transform="translate(134.708 105.644)" fill="#1a1a1a"/>
        <path id="Path_97" data-name="Path 97" d="M87.015,65.323A.944.944,0,0,1,86.1,64.3c.409-3.7-2.269-8.482-7.545-13.476a.924.924,0,0,1,1.272-1.34c5.7,5.4,8.583,10.736,8.108,15.018a.926.926,0,0,1-.916.821" transform="translate(153.841 96.774)" fill="#1a1a1a"/>
        <path id="Path_98" data-name="Path 98" d="M104.742,69.143c-1.1-1.6-2.728-9.41,1.536-10.487a3.608,3.608,0,0,1,3.6.762c1.569,1.536,1.56,4.529,1.074,6.619a.924.924,0,0,1-1.8-.418c.409-1.753.347-3.995-.569-4.881-.148-.154-.611-.614-1.857-.291-1.993.5-1.593,5.32-1.085,7.571a.927.927,0,0,1-.7,1.1,1.193,1.193,0,0,1-.2.021" transform="translate(203.443 114.983)" fill="#1a1a1a"/>
        <path id="Path_99" data-name="Path 99" d="M46.157,106.823a.921.921,0,0,1-.922-.922V19.208a.922.922,0,1,1,1.845,0V105.9a.92.92,0,0,1-.922.922" transform="translate(88.917 35.944)" fill="#1a1a1a"/>
        <path id="Path_100" data-name="Path 100" d="M111.4,60.859c-.219-.027-7.515-1.824-7.515-1.824-.3-1.655,6.213-6.186,6.213-6.186a.934.934,0,0,1,1.287.231.924.924,0,0,1-.234,1.284l-4.84,3.369,5.312,1.308a.923.923,0,0,1-.222,1.818" transform="translate(204.19 103.566)" fill="#1a1a1a"/>
      </g>
    </g>
  </g>
</svg>
