<svg xmlns="http://www.w3.org/2000/svg" xmlns:xlink="http://www.w3.org/1999/xlink" width="640" height="420" viewBox="0 0 640 420">
  <defs>
    <clipPath id="clip-path">
      <rect id="Rectangle_7" data-name="Rectangle 7" width="634.158" height="420" fill="none"/>
    </clipPath>
    <clipPath id="clip-ilustracja-3">
      <rect width="640" height="420"/>
    </clipPath>
  </defs>
  <g id="ilustracja-3" clip-path="url(#clip-ilustracja-3)">
    <g id="Group_23" data-name="Group 23" transform="translate(3)">
      <g id="Group_4" data-name="Group 4" clip-path="url(#clip-path)">
        <path id="Path_101" data-name="Path 101" d="M169.8,57.8l-3.9,35.3-1.824,16.3v14.348s-.358,3.3.6,2.33l1.93-1.947,7.561,12.178.455,5.96L159.9,191.307l-42.627-9.3,6.51-47.09,6.413-6.793s4.311-1.889,4.042-9.5c0,0-10.106,1.091-12.6-2.316s-4.855-7.655-5.124-12.035l-1.849-2.425s-4.681-5.428-4.208-12.11,2-10.8,4.208-12.27,1.406-7.243,1.406-7.243l.919-10.275S153.423,42.713,169.8,57.8" transform="translate(205.694 96.142)" fill="#fff"/>
        <path id="Path_102" data-name="Path 102" d="M264.492,138.351h-137.7a36.049,36.049,0,0,1-35.94-35.943V35.943A36.049,36.049,0,0,1,126.788,0h137.7a36.047,36.047,0,0,1,35.943,35.943v66.466a36.047,36.047,0,0,1-35.943,35.943" transform="translate(169.233)" fill="#ff9d00"/>
        <path id="Path_103" data-name="Path 103" d="M147.979,102.958a30.986,30.986,0,0,0-26.893-54.5L143.51,60.305Z" transform="translate(225.56 88.318)" fill="#1a1a1a"/>
        <path id="Path_104" data-name="Path 104" d="M98.776,156.486l66.079.713s-11.225-14.119-12.347-22.779c0,0-49.8,21.457-53.732,22.067" transform="translate(184.001 250.397)" fill="#1a1a1a"/>
        <path id="Path_105" data-name="Path 105" d="M26.19,94.8l11.494-6.083H198.76l9.321,3.733,5.734,7.42,37.162,110.759,1.56,8.643-.928,7.189-4.9,8.213-5.385,4.443-5.849,2.456H225.344L67.4,242.479Z" transform="translate(48.786 165.258)" fill="#fff"/>
        <path id="Path_106" data-name="Path 106" d="M211.025,134.276v-1.95s-4.552-2.843-19.736-2.843-17.652,3.524-17.652,3.524v42.427s4.97,2.442,18.591,2.442,18.522-2.468,18.522-2.468l.7-6.934s16.833-1.623,16.833-16.982-9.59-15.72-17.263-17.217m.252,28.23V140.457s10.741-1.423,11.228,7.853c.567,10.8-11.228,14.2-11.228,14.2" transform="translate(323.453 241.204)" fill="#1a1a1a"/>
        <path id="Path_107" data-name="Path 107" d="M289.01,42.552H171.26A21.41,21.41,0,0,0,149.912,63.9v78.936l25.668-25.668H289.01A21.408,21.408,0,0,0,310.355,95.82V63.9A21.408,21.408,0,0,0,289.01,42.552" transform="translate(279.258 79.266)" fill="#1a1a1a"/>
        <path id="Path_108" data-name="Path 108" d="M97.726,78.034,86.984,47.669H26.19l15.2,42.968h59.907Z" transform="translate(48.786 88.798)" fill="#ff9d00"/>
        <path id="Path_109" data-name="Path 109" d="M230.17,238.381H79.231a23.01,23.01,0,0,1-21.9-15.136l-35.8-103.382C16.581,105.575,27.7,90.84,43.431,90.84H194.373a23.01,23.01,0,0,1,21.9,15.136l35.8,103.382c4.95,14.288-6.172,29.023-21.9,29.023" transform="translate(37.89 169.218)" fill="#1a1a1a"/>
        <path id="Path_110" data-name="Path 110" d="M284.18,256.526,178.17,256.1c11.108-7.186,10.306-23.618,10.306-23.618s-7.243-3.149-15.459-7.644c-8.216-4.466-17.435-3.321-17.435-3.321-8.875-5.525-16.261-2.061-16.261-2.061-2.433-2.634-9.419-3.006-11.652-2.662-2.2.372-5.182,6.985-5.182,6.985L94.977,138.492s10.936-21.729,23.59-38.39c8.5-11.165,24.448-16.633,34.01-19.009l1.6,40.595,15.545-26.6c1.26-.487-1.288,1.116,0,0l13.656,27.8,20.014-40.772c10.821,1.778,16.888,5.5,16.888,5.5L234.8,96.7c7.7,7.672,15.287,17.893,23.446,30.575,8.159,12.654,14.887,30.145,20.984,43.028,6.1,12.854,10.793,39.965,11.938,54.508,1.174,14.543-6.985,31.72-6.985,31.72" transform="translate(176.924 151.061)" fill="#ff9d00"/>
        <path id="Path_111" data-name="Path 111" d="M189.773,130.477c-8.268,0-14.97,1.38-14.97,3.077l14.97.816,14.972-.816c0-1.7-6.7-3.077-14.972-3.077" transform="translate(325.625 243.054)" fill="#fff"/>
        <path id="Path_112" data-name="Path 112" d="M177.121,144.44s-10.174-6.35-18.829-9.261-13.381-1.984-13.381-1.984-6.753-2.674-10.109-3.078a14.068,14.068,0,0,0-6.874,1.357,12.5,12.5,0,0,0-7.635-2.963c-4.469-.04-7.844,2.37-9.651,6.945,0,0,2.631,7.4,1.912,11.537s-3.513,15.121-11.217,17.987c0,0,4.54,5.7,11.294-.349,0,0,4.538,4.5,16.14,3.576,0,0,9.582.824,12.84-2.451s7.22-10.421,7.22-10.421,2.554,13.5,16.115,12.994c0,0,5.01-1.557,8.76-9.419a32.92,32.92,0,0,0,3.412-14.472" transform="translate(188.777 239.391)" fill="#fff"/>
        <path id="Path_113" data-name="Path 113" d="M74.2,122.7c4.595,7.964,4.077,16.871-1.162,19.9s-13.218-.979-17.815-8.941-4.077-16.873,1.165-19.9S69.6,114.734,74.2,122.7" transform="translate(97.034 210.028)" fill="#fff"/>
        <path id="Path_114" data-name="Path 114" d="M53.7,64.471h80.86l20.154,56.979H74.089Z" transform="translate(100.038 120.098)" fill="#ff9d00"/>
        <path id="Path_115" data-name="Path 115" d="M174.729,58.819a9.738,9.738,0,1,1-9.736-9.739,9.738,9.738,0,0,1,9.736,9.739" transform="translate(289.207 91.427)" fill="#fff"/>
        <path id="Path_116" data-name="Path 116" d="M191.008,58.819a9.738,9.738,0,1,1-9.736-9.739,9.738,9.738,0,0,1,9.736,9.739" transform="translate(319.531 91.427)" fill="#fff"/>
        <path id="Path_117" data-name="Path 117" d="M198.2,49.081a9.738,9.738,0,1,1-9.736,9.739,9.738,9.738,0,0,1,9.736-9.739" transform="translate(351.065 91.429)" fill="#fff"/>
        <path id="Path_118" data-name="Path 118" d="M124.69,68.155l28.325-48.507,4.446-4.254,3.261-.481,4.039,2.476L195.23,69.014l1.128,4.652L193.587,78.3l-3.129,1.328-62.644-.469-3.123-1.829L123.1,73.666Z" transform="translate(229.32 27.779)" fill="#fff"/>
        <path id="Path_119" data-name="Path 119" d="M148.933,75.511c0,9.112-5.19,16.5-11.592,16.5s-11.592-7.386-11.592-16.5,5.19-16.5,11.592-16.5,11.592,7.386,11.592,16.5" transform="translate(234.248 109.934)" fill="#ccc"/>
        <path id="Path_120" data-name="Path 120" d="M144.124,75.378c0,8.869-3.676,16.057-8.211,16.057S127.7,84.247,127.7,75.378s3.676-16.055,8.211-16.055,8.211,7.189,8.211,16.055" transform="translate(237.886 110.507)" fill="#fff"/>
        <path id="Path_121" data-name="Path 121" d="M148.018,80.46s-1.277-15.869-9.642-22.716a35.834,35.834,0,0,0-20.157-7.867s2.116-2.353,7.921-2.462,12.622,2.093,18.514,6.647,9.874,15.253,8.929,25.728Z" transform="translate(220.22 88.317)" fill="#ff9d00"/>
        <path id="Path_122" data-name="Path 122" d="M158.771,150.369S140.5,139.8,133.192,139.613s-6.132-.189-6.132-.189-13.361-5.457-16.138-2.871c0,0,9.442-12.634,26.372-11.285s21.5,22.774,21.477,25.1" transform="translate(206.627 233.162)" fill="#1a1a1a"/>
        <path id="Path_123" data-name="Path 123" d="M39.484,124.509a34.778,34.778,0,0,1-3.518-11,.917.917,0,0,1,.762-1.051.9.9,0,0,1,1.054.764,57.947,57.947,0,0,0,2.565,10.057.927.927,0,0,1-.862,1.228m-3.358-20.75a.917.917,0,0,1-.919-.93,61.342,61.342,0,0,1,1.122-10.655.944.944,0,0,1,1.079-.724.923.923,0,0,1,.724,1.079,58.443,58.443,0,0,0-1.088,10.329.92.92,0,0,1-.919.9m4.037-20.621c-.8-.249-1.039-.779-.853-1.254a59.188,59.188,0,0,1,3.1-6.693c.532-.982,1.1-1.944,1.689-2.894a.909.909,0,0,1,1.265-.289.919.919,0,0,1,.292,1.263c-.573.919-1.119,1.852-1.632,2.794a57.594,57.594,0,0,0-3.006,6.49.918.918,0,0,1-.856.584M110.37,81.2a8.7,8.7,0,0,1-3.513-.816A.917.917,0,0,1,107.6,78.7a6.855,6.855,0,0,0,2.765.661c2.745,0,4.005-2.273,4.509-3.63a.929.929,0,0,1,1.179-.541.919.919,0,0,1,.538,1.182c-1.142,3.063-3.412,4.818-6.227,4.818M99.357,73.583a24.164,24.164,0,0,1-5.268-10.226.917.917,0,1,1,1.775-.464,27.641,27.641,0,0,0,4.234,9.235.919.919,0,0,1-.2,1.283.945.945,0,0,1-.538.172m15.909-6.939a29.841,29.841,0,0,0-4.8-6.384c-.736-.676-1.5-1.325-2.285-1.935a.916.916,0,1,1,1.122-1.449c.83.644,1.635,1.323,2.41,2.044a17.749,17.749,0,0,1,4.406,6.464.914.914,0,0,1-.515,1.188.847.847,0,0,1-.341.072M51.345,65.37c-1-.6-1.016-1.179-.667-1.546a51.937,51.937,0,0,1,8.15-6.982.916.916,0,1,1,1.042,1.506,50.765,50.765,0,0,0-7.864,6.739.9.9,0,0,1-.661.283M93.8,53.575a.915.915,0,0,1-.916-.933c.009-.418.02-.842.04-1.257q-1.816-.382-3.676-.6a.918.918,0,0,1,.212-1.824c1.211.146,2.4.335,3.581.578a49.172,49.172,0,0,1,1.24-7.549.918.918,0,1,1,1.784.438,47.069,47.069,0,0,0-1.214,7.521,40.975,40.975,0,0,1,5.059,1.617.918.918,0,1,1-.67,1.709,38.716,38.716,0,0,0-4.5-1.46c-.031,1.363-.441,1.763-.942,1.763m-25.17-.057c-1.039-1.051-.81-1.583-.341-1.772a44.549,44.549,0,0,1,5.557-1.806,41.666,41.666,0,0,1,4.852-.933.918.918,0,0,1,.243,1.821,40.6,40.6,0,0,0-4.643.887,43.224,43.224,0,0,0-5.325,1.732.87.87,0,0,1-.344.072M98.85,33.243c-.876-.335-1.051-.887-.816-1.34a31,31,0,0,1,6.221-8.451,1.083,1.083,0,0,1,1.417-.072.789.789,0,0,1,.083,1.179,29.749,29.749,0,0,0-6.095,8.188.9.9,0,0,1-.81.5m14.357-15.216c-1.039-.77-.956-1.346-.553-1.652a86.835,86.835,0,0,1,8.883-5.9.917.917,0,0,1,.916,1.589,85.221,85.221,0,0,0-8.694,5.78.905.905,0,0,1-.553.186m69.051-6.247a75.286,75.286,0,0,0-9.825-4.658.915.915,0,0,1-.532-1.185.9.9,0,0,1,1.182-.53,61.646,61.646,0,0,1,9.648,4.666.919.919,0,0,1-.472,1.706M131.492,7.587c-1.036-1.054-.8-1.586-.332-1.772A61.772,61.772,0,0,1,141.42,2.76a.919.919,0,0,1,.366,1.8,59.675,59.675,0,0,0-9.96,2.963.9.9,0,0,1-.335.063m31.1-3.249a56.3,56.3,0,0,0-9.871-.9c-1.205-.034-1.549-.4-1.552-.9a.915.915,0,0,1,.9-.928,58.2,58.2,0,0,1,10.681.908.918.918,0,0,1-.163,1.821" transform="translate(65.584 2.997)" fill="#1a1a1a"/>
        <path id="Path_124" data-name="Path 124" d="M155.813,82.647C133.6,82.553,124.9,51.735,124.1,48.746c-1.277.249-2.439.518-3.418.813-7.669,2.307-8.551,13.255-8.451,17.7s-.006,9.373-.006,9.373l33.323,23.842c11.01-6.51,26.727-17.752,10.26-17.824" transform="translate(209.06 90.805)" fill="#fff"/>
        <path id="Path_125" data-name="Path 125" d="M193.869,169.878c-7.916,0-13.988-2.691-18.053-8.007-5.935-7.758-5.7-18.694-4.16-23.764,2.313-7.612,1.821-9.948.2-17.692a18.878,18.878,0,0,1,4.377-16.579,17.064,17.064,0,0,1,14.881-5.479c5.969.624,10.564,3.192,13.286,7.418,2.974,4.621,3.467,10.9,1.351,17.243-3.341,10.04.135,13.982.169,14.025,5,5.445,8.219,15.76,4.921,23.584-1.7,4.048-5.843,8.932-15.88,9.235-.366.014-.736.017-1.094.017m-4.921-69.8a14.893,14.893,0,0,0-11.357,4.987c-3.43,3.8-5.1,9.387-4.16,13.928,1.829,8.723,2.431,11.592-.017,19.645-1.543,5.076-1.368,15.293,3.862,22.121,3.87,5.064,9.774,7.526,17.629,7.274,7.177-.218,12.1-3.023,14.245-8.113,2.972-7.051-.066-16.722-4.583-21.634-.175-.189-4.231-4.787-.552-15.84,1.935-5.811,1.517-11.523-1.157-15.674-2.413-3.742-6.539-6.018-11.935-6.59a19,19,0,0,0-1.975-.1" transform="translate(318.03 183.006)" fill="#1a1a1a"/>
        <path id="Path_126" data-name="Path 126" d="M174.054,108.864c-4.1,0-7.312-4.692-7.312-10.687s3.212-10.7,7.312-10.7,7.314,4.7,7.314,10.7-3.209,10.687-7.314,10.687m0-19.553c-2.972,0-5.482,4.062-5.482,8.866s2.511,8.858,5.482,8.858,5.485-4.059,5.485-8.858-2.514-8.866-5.485-8.866" transform="translate(310.609 162.957)" fill="#1a1a1a"/>
        <path id="Path_127" data-name="Path 127" d="M187.3,156.964a.917.917,0,0,1-.2-1.812c.412-.092,10.129-2.4,10.724-12.052a7.2,7.2,0,0,0-1.941-5.937c-2.977-2.846-8.385-2.293-8.425-2.293a.921.921,0,0,1-1.008-.816.91.91,0,0,1,.81-1.008c.258-.037,6.3-.638,9.894,2.788a8.947,8.947,0,0,1,2.5,7.377c-.676,11.05-12.038,13.707-12.155,13.733a.966.966,0,0,1-.2.02" transform="translate(347.195 247.72)" fill="#1a1a1a"/>
        <path id="Path_128" data-name="Path 128" d="M187.562,166.622a.916.916,0,0,1-.092-1.826c.7-.074,17.082-1.9,15.949-17.718-.346-4.921-2.007-8.646-4.93-11.073-4.629-3.828-10.927-3.146-11-3.141a.917.917,0,1,1-.212-1.821c.283-.037,7.123-.79,12.364,3.538,3.332,2.76,5.225,6.917,5.608,12.367,1.26,17.609-17.412,19.656-17.6,19.667a.491.491,0,0,1-.089.006" transform="translate(347.349 243.973)" fill="#1a1a1a"/>
        <path id="Path_129" data-name="Path 129" d="M192.822,149.893c-3.258,0-19.5-.189-19.5-3.873a.918.918,0,0,1,1.824-.149c.867.913,7.523,2.187,17.681,2.187,10.435,0,17.228-1.32,17.936-2.239a.818.818,0,0,1,.893-.819.987.987,0,0,1,.888,1.019c0,3.684-16.424,3.873-19.716,3.873" transform="translate(322.859 270.107)" fill="#1a1a1a"/>
        <path id="Path_130" data-name="Path 130" d="M174.234,174.143a.915.915,0,0,1-.916-.913V131.313a.915.915,0,1,1,1.829,0V173.23a.912.912,0,0,1-.913.913" transform="translate(322.859 242.899)" fill="#1a1a1a"/>
        <path id="Path_131" data-name="Path 131" d="M187.3,174.345a.913.913,0,0,1-.916-.913V131.2a.915.915,0,0,1,1.829,0v42.232a.912.912,0,0,1-.913.913" transform="translate(347.196 242.698)" fill="#1a1a1a"/>
        <path id="Path_132" data-name="Path 132" d="M192.931,138.05c-.8,0-19.613-.049-19.613-4.443s18.814-4.446,19.613-4.446,19.622.049,19.622,4.446-18.823,4.443-19.622,4.443m-17.747-4.443c.759.976,7.065,2.611,17.747,2.611,10.965,0,17.326-1.723,17.8-2.685-.472-.813-6.834-2.539-17.8-2.539-10.681,0-16.988,1.638-17.747,2.614" transform="translate(322.859 240.602)" fill="#1a1a1a"/>
        <path id="Path_133" data-name="Path 133" d="M113.2,77.081a.919.919,0,0,1-.913-.813C109.48,51.65,122.8,49.477,123.365,49.394a29.887,29.887,0,0,1,4.947-1.24c.532-.1,3.7-.638,3.226.455-.2.464,1.918,1.557,1.417,1.646-2.015.366-8,.487-9.141.91-.681.126-12.293,2.159-9.7,24.9a.909.909,0,0,1-.807,1.013.64.64,0,0,1-.1.006" transform="translate(208.452 89.294)" fill="#1a1a1a"/>
        <path id="Path_134" data-name="Path 134" d="M217.214,156.932c-29.939-25.857-95.873-30.088-96.537-30.131a.911.911,0,0,1-.862-.971,1,1,0,0,1,.971-.859c.67.043,67.227,4.314,97.032,30.352a.915.915,0,0,1-.6,1.609" transform="translate(223.19 232.799)" fill="#1a1a1a"/>
        <path id="Path_135" data-name="Path 135" d="M204.093,253.092c-.873-.335-1.048-.888-.813-1.34,19.124-36.982-9.971-101.283-28.024-130.12a187.27,187.27,0,0,0-15.7-22.193c-5.388-6.318-12.6-10.378-20.781-14.66a.918.918,0,0,1,.853-1.626c8.047,4.211,15.737,8.537,21.322,15.1a187.787,187.787,0,0,1,15.854,22.41c19.6,31.3,47.566,94.3,28.1,131.938a.911.911,0,0,1-.813.5" transform="translate(257.604 154.706)" fill="#1a1a1a"/>
        <path id="Path_136" data-name="Path 136" d="M153.584,82.17a4.206,4.206,0,0,1,.258-1.509l-.681.135c-24.56,4.993-43.343,23.235-57.422,55.762-.344.793-.684,1.586-1.016,2.388-.2.464.02,1,.845,1.268a.921.921,0,0,0,.847-.564c.332-.787.67-1.575,1-2.365,14.016-32.381,31.846-49.759,56.1-54.688.031-.009.08-.017.112-.023-.014-.135-.043-.269-.049-.4" transform="translate(176.321 150.256)" fill="#1a1a1a"/>
        <path id="Path_137" data-name="Path 137" d="M127.471,109.022a17.643,17.643,0,0,1-5.419-.753c-3.868-1.217-6.49-4.074-8.019-8.732-2.31-7.051-2.193-14.543-2.078-21.786.074-4.818.2-8.646.321-12.47l.189-5.943c.238-.959.733-1.251,1.237-1.079.484.149.753-1.314.6-.83l-.192,7.913c-.12,3.813-.243,7.635-.306,11.451-.123,8.082-.24,15.416,1.975,22.172,1.331,4.054,3.561,6.53,6.825,7.555a18.833,18.833,0,0,0,7.4.55c3.023-.261,7.449-.8,10.521-1.42a.961.961,0,0,1,1.085.721.922.922,0,0,1-.721,1.082c-3.143.636-7.649,1.182-10.73,1.446-.953.08-1.846.123-2.688.123" transform="translate(208.457 106.794)" fill="#1a1a1a"/>
        <path id="Path_138" data-name="Path 138" d="M121.448,61.559c-.733-.115-1.225.2-1.434,2.84-.235,2.943.527,3.464,1.188,3.435s1.323-.933,1.291-3.037-.086-3.086-1.045-3.238" transform="translate(223.481 114.636)" fill="#1a1a1a"/>
        <path id="Path_139" data-name="Path 139" d="M114.424,61.145c-.73-.14-1.231.157-1.529,2.788-.335,2.934.412,3.478,1.071,3.475s1.351-.89,1.394-2.992.02-3.089-.936-3.272" transform="translate(210.147 113.85)" fill="#1a1a1a"/>
        <path id="Path_140" data-name="Path 140" d="M112.99,61.343c-1.025-.693-.982-1.28-.6-1.606,1.145-1,3.115-2.2,7.028-1.182a.919.919,0,0,1-.464,1.778c-3.012-.793-4.4-.046-5.365.787a.894.894,0,0,1-.6.223" transform="translate(208.896 108.353)" fill="#1a1a1a"/>
        <path id="Path_141" data-name="Path 141" d="M119.581,60.836c-.819-.93-.633-1.483-.18-1.709,1.36-.681,3.567-1.348,7.1.616a.92.92,0,0,1-.9,1.606c-2.717-1.52-4.248-1.145-5.391-.578a.9.9,0,0,1-.636.066" transform="translate(221.7 108.868)" fill="#1a1a1a"/>
        <path id="Path_142" data-name="Path 142" d="M151.062,186.358a.932.932,0,0,1-.913-1c3.14-31.809-14.606-84.69-14.786-85.217a.917.917,0,1,1,1.738-.587c.18.535,18.053,53.789,14.872,85.982a.914.914,0,0,1-.91.827" transform="translate(252.061 184.273)" fill="#1a1a1a"/>
        <path id="Path_143" data-name="Path 143" d="M119.845,75.4a10.4,10.4,0,0,1-2.771-.407.916.916,0,1,1,.487-1.766,5.884,5.884,0,0,0,5-.449c2.1-1.457,2.413-4.463,2.413-4.495a.874.874,0,0,1,1-.83.927.927,0,0,1,.83,1c-.017.157-.4,3.891-3.2,5.829a6.462,6.462,0,0,1-3.762,1.114" transform="translate(216.833 125.647)" fill="#1a1a1a"/>
        <path id="Path_144" data-name="Path 144" d="M168.022,54H136.494a.916.916,0,0,1,0-1.832h31.528a.916.916,0,1,1,0,1.832" transform="translate(252.556 97.179)" fill="#1a1a1a"/>
        <path id="Path_145" data-name="Path 145" d="M146.335,144.035H132.25a38.376,38.376,0,0,1-38.336-38.33V42.165A38.376,38.376,0,0,1,132.25,3.835H267a38.371,38.371,0,0,1,38.333,38.33v63.54a.916.916,0,0,1-1.832,0V42.165A36.54,36.54,0,0,0,267,5.67H132.25a36.538,36.538,0,0,0-36.5,36.5v63.54a36.54,36.54,0,0,0,36.5,36.5h14.085a.916.916,0,1,1,0,1.832" transform="translate(174.944 7.144)" fill="#1a1a1a"/>
        <path id="Path_146" data-name="Path 146" d="M183.731,83.252H126.819c-3.876,0-6.791-1.357-8.213-3.828s-1.119-5.677.833-9.026l28.328-48.513c1.955-3.344,4.618-5.187,7.495-5.187s5.542,1.844,7.5,5.187L191.1,70.4c1.961,3.349,2.262,6.55.842,9.026s-4.337,3.828-8.213,3.828m-28.471-64.72c-2.2,0-4.3,1.52-5.906,4.28L121.027,71.325c-1.612,2.757-1.907,5.308-.825,7.18s3.424,2.914,6.616,2.914h56.913c3.192,0,5.54-1.036,6.619-2.914s.782-4.423-.827-7.18L161.175,22.812c-1.615-2.76-3.713-4.28-5.915-4.28" transform="translate(219.295 31.103)" fill="#1a1a1a"/>
        <path id="Path_147" data-name="Path 147" d="M70.843,142.421c-5.11,0-11.022-3.951-14.746-10.392-4.841-8.391-4.168-17.884,1.5-21.156,2.808-1.615,6.37-1.512,10.017.323a22.535,22.535,0,0,1,9.049,8.955c4.844,8.391,4.171,17.875-1.5,21.148a8.542,8.542,0,0,1-4.32,1.122m-8.869-30.847a6.807,6.807,0,0,0-3.458.887c-4.792,2.768-5.165,11.133-.827,18.645s11.763,11.377,16.561,8.6,5.165-11.128.827-18.64a20.7,20.7,0,0,0-8.285-8.231,10.847,10.847,0,0,0-4.818-1.265" transform="translate(98.475 204.417)" fill="#1a1a1a"/>
        <path id="Path_148" data-name="Path 148" d="M255.378,143.889H189.917a.916.916,0,0,1,0-1.832h65.461a.916.916,0,0,1,0,1.832" transform="translate(352.079 264.625)" fill="#1a1a1a"/>
        <path id="Path_149" data-name="Path 149" d="M497.093,143.889H.916a.916.916,0,1,1,0-1.832H497.093a.916.916,0,0,1,0,1.832" transform="translate(0 264.625)" fill="#1a1a1a"/>
        <path id="Path_150" data-name="Path 150" d="M222.653,244.218a.916.916,0,1,1,0-1.832,22.159,22.159,0,0,0,21.03-29.123l-35.8-108.042a22.126,22.126,0,0,0-21.03-15.19H35.915A22.524,22.524,0,0,0,31,90.574a.92.92,0,0,1-.4-1.795,24.546,24.546,0,0,1,5.313-.581H186.856a23.961,23.961,0,0,1,22.774,16.447l35.8,108.04a23.987,23.987,0,0,1-22.774,31.534" transform="translate(55.667 164.296)" fill="#1a1a1a"/>
        <path id="Path_151" data-name="Path 151" d="M230.766,239.893H79.827a23.88,23.88,0,0,1-22.768-15.748L21.26,120.76a22.017,22.017,0,0,1,2.949-20.2A24.28,24.28,0,0,1,44.027,90.52H194.969a23.882,23.882,0,0,1,22.768,15.748l35.8,103.385a22.016,22.016,0,0,1-2.946,20.2,24.3,24.3,0,0,1-19.825,10.04M44.027,92.352A22.446,22.446,0,0,0,25.7,101.625a20.2,20.2,0,0,0-2.708,18.534l35.8,103.382a22.062,22.062,0,0,0,21.036,14.523H230.766a22.459,22.459,0,0,0,18.331-9.276,20.2,20.2,0,0,0,2.708-18.531l-35.8-103.385a22.062,22.062,0,0,0-21.036-14.52Z" transform="translate(37.293 168.622)" fill="#1a1a1a"/>
        <path id="Path_152" data-name="Path 152" d="M117.73,166.68c-3.521,0-5.877-.936-7-2.788-2.187-3.6.83-9.419,3.255-14.1.5-.968.962-1.864,1.328-2.654.4-.85.787-1.849,1.205-2.929,2.539-6.51,6.327-16.355,19.808-14.039.721.2,15.6,4.414,24.746,10.767a.918.918,0,0,1-1.051,1.506c-8.883-6.178-23.953-10.438-24.1-10.484-11.884-2.047-15.23,6.6-17.692,12.914-.429,1.119-.836,2.161-1.248,3.043-.375.8-.853,1.726-1.366,2.717-2.093,4.051-4.964,9.593-3.315,12.3.77,1.262,2.6,1.91,5.434,1.91,12.27,0,14.34-15.379,14.343-15.534a.916.916,0,0,1,1.832,0c0,2.167-3.209,17.366-16.175,17.366" transform="translate(204.857 241.84)" fill="#1a1a1a"/>
        <path id="Path_153" data-name="Path 153" d="M116.161,168.887c-7.36-.475-9.911-3.069-10.767-5.162-1.174-2.871.243-5.943,1.958-7.864,1.348-1.506,2.788-5.19,4.311-9.089,2.141-5.477,4.566-11.686,7.884-15.3,6.081-6.61,18.54.381,19.066.678a.919.919,0,1,1-.91,1.6c-.112-.063-11.718-6.57-16.8-1.031-3.086,3.358-5.445,9.4-7.526,14.721-1.658,4.237-3.083,7.9-4.652,9.651-1.285,1.431-2.482,3.853-1.629,5.94.942,2.31,4.1,3.7,9.127,4.025a.917.917,0,0,1-.057,1.832" transform="translate(195.527 239.633)" fill="#1a1a1a"/>
        <path id="Path_154" data-name="Path 154" d="M136.123,152.712c-17.412-.847-18.614-14.257-18.625-14.391a.923.923,0,0,1,.847-.985.949.949,0,0,1,.985.847c.037.484,1.128,11.929,15.949,12.674a14.906,14.906,0,0,0,2.6-.083.9.9,0,0,1,1.028.793.916.916,0,0,1-.8,1.028,15.532,15.532,0,0,1-1.984.117" transform="translate(218.871 255.828)" fill="#1a1a1a"/>
        <path id="Path_155" data-name="Path 155" d="M148.443,175.884c-1.045-.833-.928-1.4-.507-1.683a25.753,25.753,0,0,0,10.836-25.631c-2.213-13.976-14.692-23.653-27.958-21.571-4.331.687-10.976,2.548-18.625,10.715a.918.918,0,0,1-1.34-1.257c8.039-8.58,15.081-10.541,19.676-11.271,14.188-2.242,27.689,8.116,30.06,23.094,1.721,10.879-2.843,21.657-11.634,27.454a.916.916,0,0,1-.507.149" transform="translate(206.03 232.63)" fill="#1a1a1a"/>
        <path id="Path_156" data-name="Path 156" d="M105.306,137.662c-.721-.16-1.013-.658-.887-1.148.066-.246,1.629-6.029,6.109-7.89,5.6-2.342,12.03,2.837,12.3,3.063a.918.918,0,1,1-1.165,1.42c-.054-.046-5.86-4.715-10.429-2.794-3.636,1.514-5.027,6.616-5.041,6.665a.913.913,0,0,1-.887.684" transform="translate(194.459 238.472)" fill="#1a1a1a"/>
        <path id="Path_157" data-name="Path 157" d="M106.936,145.657a11.189,11.189,0,0,1-5.542-1.577.916.916,0,0,1,.9-1.6c6.562,3.7,10.747-1.354,10.922-1.566a.917.917,0,1,1,1.429,1.151,10.747,10.747,0,0,1-7.707,3.59" transform="translate(188.005 261.867)" fill="#1a1a1a"/>
        <path id="Path_158" data-name="Path 158" d="M139.85,93.518h-2.116c-6.788,0-12.3-7.81-12.3-17.412s5.517-17.412,12.3-17.412H139.3a.915.915,0,1,1,0,1.829h-1.566c-5.774,0-10.472,6.994-10.472,15.582s4.7,15.579,10.472,15.579h2.116a.916.916,0,0,1,0,1.832" transform="translate(233.652 109.338)" fill="#1a1a1a"/>
        <path id="Path_159" data-name="Path 159" d="M137,93.521c-5.537,0-9.868-7.647-9.868-17.412S131.463,58.695,137,58.695s9.868,7.649,9.868,17.414S142.534,93.521,137,93.521m0-32.994c-4.354,0-8.036,7.137-8.036,15.582S132.646,91.689,137,91.689s8.036-7.134,8.036-15.579S141.354,60.527,137,60.527" transform="translate(236.823 109.338)" fill="#1a1a1a"/>
        <path id="Path_160" data-name="Path 160" d="M115.969,88.812c-4.014-3.146-5.749-8-5.749-14.66,0-6.221,1.772-11.116,5.133-14.165a.9.9,0,0,1,1.294.066.913.913,0,0,1-.063,1.294c-2.963,2.691-4.526,7.12-4.526,12.805,0,6.1,1.517,10.484,4.506,13.046a.918.918,0,0,1-.6,1.615" transform="translate(205.319 111.293)" fill="#1a1a1a"/>
        <path id="Path_161" data-name="Path 161" d="M148.328,81.958a.92.92,0,0,1-.916-.948c.278-8.233-1.972-14.952-6.685-19.982-8.577-9.152-22.53-9.676-22.668-9.682-.255-1.852,6.178-6.6,15.37-2.837,2.021.261,23.1,3.679,22.115,32.567a.917.917,0,0,1-1.832-.066c.968-28.465-20.38-30.669-20.6-30.689a16.073,16.073,0,0,0-11.821-.5c4.844.693,14.168,2.909,20.77,9.948,5.061,5.4,7.478,12.571,7.174,21.308a.911.911,0,0,1-.913.882" transform="translate(219.909 87.738)" fill="#1a1a1a"/>
        <path id="Path_162" data-name="Path 162" d="M111.5,189.682c-16.4-56.858-4.088-91.868-3.962-92.211a.918.918,0,1,1,1.726.624c-.126.344-12.23,34.852,3.12,90.422a.921.921,0,0,1-.641,1.134.9.9,0,0,1-.243.031" transform="translate(191.844 180.439)" fill="#1a1a1a"/>
        <path id="Path_163" data-name="Path 163" d="M26.095,97.691c-1.048-.908-.893-1.466-.449-1.718L38.88,88.509a.919.919,0,0,1,.9,1.6L26.547,97.573a.951.951,0,0,1-.452.117" transform="translate(47.139 164.663)" fill="#1a1a1a"/>
        <path id="Path_164" data-name="Path 164" d="M200.979,84.479a4,4,0,1,0-4-4,4,4,0,0,0,4,4" transform="translate(366.94 142.473)" fill="#1a1a1a"/>
        <path id="Path_165" data-name="Path 165" d="M211.968,84.819a4.2,4.2,0,1,0-4.206-4.2,4.2,4.2,0,0,0,4.206,4.2" transform="translate(387.021 142.339)" fill="#1a1a1a"/>
        <path id="Path_166" data-name="Path 166" d="M222.616,84.31a3.895,3.895,0,1,0-3.893-3.9,3.9,3.9,0,0,0,3.893,3.9" transform="translate(407.439 142.542)" fill="#1a1a1a"/>
        <path id="Path_167" data-name="Path 167" d="M201.113,95.672a4.2,4.2,0,1,0-4.2-4.205,4.2,4.2,0,0,0,4.2,4.205" transform="translate(366.806 162.556)" fill="#1a1a1a"/>
        <path id="Path_168" data-name="Path 168" d="M212.1,96.012A4.41,4.41,0,1,0,207.69,91.6a4.41,4.41,0,0,0,4.412,4.412" transform="translate(386.887 162.422)" fill="#1a1a1a"/>
        <path id="Path_169" data-name="Path 169" d="M222.752,95.5a4.1,4.1,0,1,0-4.1-4.1,4.1,4.1,0,0,0,4.1,4.1" transform="translate(407.303 162.625)" fill="#1a1a1a"/>
        <path id="Path_170" data-name="Path 170" d="M200.911,106.013a3.893,3.893,0,1,0-3.893-3.893,3.894,3.894,0,0,0,3.893,3.893" transform="translate(367.007 182.976)" fill="#1a1a1a"/>
        <path id="Path_171" data-name="Path 171" d="M211.9,106.355a4.1,4.1,0,1,0-4.1-4.1,4.1,4.1,0,0,0,4.1,4.1" transform="translate(387.088 182.84)" fill="#1a1a1a"/>
        <path id="Path_172" data-name="Path 172" d="M222.574,105.9a3.825,3.825,0,1,0-3.828-3.828,3.83,3.83,0,0,0,3.828,3.828" transform="translate(407.482 183.021)" fill="#1a1a1a"/>
        <path id="Path_173" data-name="Path 173" d="M147.507,141.545c-.916-.913-.916-79.852-.916-79.852a22.293,22.293,0,0,1,22.264-22.267H286.6a22.293,22.293,0,0,1,22.264,22.267v31.92A22.288,22.288,0,0,1,286.6,115.874H173.553l-25.4,25.407a.931.931,0,0,1-.65.263M168.855,41.258a20.457,20.457,0,0,0-20.432,20.435v76.72l24.1-24.1c.65-.266,114.08-.266,114.08-.266a20.452,20.452,0,0,0,20.432-20.429V61.693A20.455,20.455,0,0,0,286.6,41.258Z" transform="translate(273.071 73.443)" fill="#1a1a1a"/>
        <path id="Path_174" data-name="Path 174" d="M181.866,70.068a10.654,10.654,0,1,1,10.653-10.653,10.666,10.666,0,0,1-10.653,10.653m0-19.476a8.822,8.822,0,1,0,8.82,8.823,8.835,8.835,0,0,0-8.82-8.823" transform="translate(318.934 90.831)" fill="#1a1a1a"/>
        <path id="Path_175" data-name="Path 175" d="M165.586,70.068a10.654,10.654,0,1,1,10.655-10.653,10.664,10.664,0,0,1-10.655,10.653m0-19.476a8.822,8.822,0,1,0,8.823,8.823,8.834,8.834,0,0,0-8.823-8.823" transform="translate(288.611 90.831)" fill="#1a1a1a"/>
        <path id="Path_176" data-name="Path 176" d="M198.793,70.068a10.654,10.654,0,1,1,10.652-10.653,10.666,10.666,0,0,1-10.652,10.653m0-19.476a8.822,8.822,0,1,0,8.82,8.823,8.835,8.835,0,0,0-8.82-8.823" transform="translate(350.465 90.831)" fill="#1a1a1a"/>
        <path id="Path_177" data-name="Path 177" d="M151.712,119.08H71.084a.916.916,0,1,1,0-1.832h79.328L130.908,62.1H50.7a.916.916,0,0,1,0-1.832h80.86c.865.61,21.019,57.591,21.019,57.591-.286,1.076-.567,1.22-.865,1.22" transform="translate(92.734 112.27)" fill="#1a1a1a"/>
        <path id="Path_178" data-name="Path 178" d="M70.935,119.08c-.865-.61-21.019-57.588-21.019-57.588a.917.917,0,1,1,1.729-.613L71.8,117.861a.92.92,0,0,1-.558,1.171.869.869,0,0,1-.306.049" transform="translate(92.884 112.269)" fill="#1a1a1a"/>
        <path id="Path_179" data-name="Path 179" d="M82.223,66.277H36.169a.916.916,0,1,1,0-1.832H82.223a.916.916,0,1,1,0,1.832" transform="translate(65.67 120.049)" fill="#1a1a1a"/>
        <path id="Path_180" data-name="Path 180" d="M102.74,82.282c-.865-.613-11.614-31.013-11.614-31.013H30.8a.916.916,0,1,1,0-1.832H91.775c.865.61,11.823,31.617,11.823,31.617a.912.912,0,0,1-.555,1.171.876.876,0,0,1-.3.057" transform="translate(55.668 92.092)" fill="#1a1a1a"/>
        <path id="Path_181" data-name="Path 181" d="M46.059,94.241C45.2,93.628,30,50.66,30,50.66a.917.917,0,0,1,1.729-.613l15.2,42.965a.919.919,0,0,1-.555,1.174.9.9,0,0,1-.309.054" transform="translate(55.78 92.091)" fill="#1a1a1a"/>
        <path id="Path_182" data-name="Path 182" d="M109.824,70.027H58.677a.916.916,0,1,1,0-1.832h51.147a.916.916,0,1,1,0,1.832" transform="translate(107.592 127.034)" fill="#1a1a1a"/>
        <path id="Path_183" data-name="Path 183" d="M111.289,74.078H60.142a.916.916,0,1,1,0-1.832h51.147a.916.916,0,1,1,0,1.832" transform="translate(110.321 134.581)" fill="#1a1a1a"/>
        <path id="Path_184" data-name="Path 184" d="M64.451,110.9a59,59,0,0,1-8.623-7.18.918.918,0,0,1,1.294-1.3A72.915,72.915,0,0,0,65,109.244a.918.918,0,0,1-.553,1.652M49.568,96a48.792,48.792,0,0,1-6.521-9.347.917.917,0,0,1,1.606-.885A76.376,76.376,0,0,0,50.3,94.541.913.913,0,0,1,49.568,96M39.379,77.57a25.021,25.021,0,0,1-2.96-6.63.925.925,0,0,1,.607-1.148.91.91,0,0,1,1.151.61c.61,2,1.3,3.982,2.055,5.912a.92.92,0,0,1-.521,1.191.979.979,0,0,1-.332.066" transform="translate(67.768 129.926)" fill="#1a1a1a"/>
        <path id="Path_185" data-name="Path 185" d="M151.414,89.155a.813.813,0,0,1-.421-.112,69.567,69.567,0,0,0-17.769-6.192.86.86,0,0,1,.364-1.68,69.646,69.646,0,0,1,18.248,6.378.858.858,0,0,1-.421,1.606" transform="translate(246.912 151.169)" fill="#1a1a1a"/>
        <path id="Path_186" data-name="Path 186" d="M117.278,129.57a.873.873,0,0,1-.859-.824l-1.632-41.691a.888.888,0,0,1,.223-.6l8.013-8.843a.881.881,0,0,1,.8-.272.862.862,0,0,1,.641.541l9.164,23.93a.878.878,0,0,1-.063.747l-15.548,26.59a.853.853,0,0,1-.739.427m-.764-42.218.02.744,1.483,37.64,13.856-23.7L123.361,79.8Z" transform="translate(213.826 144.038)" fill="#1a1a1a"/>
        <path id="Path_187" data-name="Path 187" d="M135.3,132.037h0a.86.86,0,0,1-.77-.481l-13.653-27.792a.863.863,0,0,1,.16-.991l25.651-25.88a.877.877,0,0,1,.707-.246.86.86,0,0,1,.633.4l8.013,12.908a.858.858,0,0,1,.043.83l-20.011,40.769a.861.861,0,0,1-.773.481m-12.611-28.491.813,1.623,11.8,24.059L154.331,90.46,147.14,78.877Z" transform="translate(225.003 142.773)" fill="#1a1a1a"/>
        <path id="Path_188" data-name="Path 188" d="M121.41,155.214a.858.858,0,0,1-.859-.859V91.771a.859.859,0,0,1,1.718,0v62.584a.858.858,0,0,1-.859.859" transform="translate(224.564 169.357)" fill="#1a1a1a"/>
        <path id="Path_189" data-name="Path 189" d="M122.127,84.29a10.529,10.529,0,0,1-7.681-3.518,2.8,2.8,0,0,1-.6-2.72,21.309,21.309,0,0,1,1.821-3.433,32.416,32.416,0,0,0,5.365-15.107.843.843,0,0,1,.965-.813.9.9,0,0,1,.81.968,34.49,34.49,0,0,1-5.611,15.874,19.643,19.643,0,0,0-1.672,3.112,7.957,7.957,0,0,0,7.011,3.842.833.833,0,0,1,.945.83.884.884,0,0,1-.827.945c-.175.011-.346.02-.521.02" transform="translate(211.814 109.336)" fill="#1a1a1a"/>
        <path id="Path_190" data-name="Path 190" d="M151.595,77.3c7.274-4.512.567-20.469-4.618-23.252s-14.217-6.521-20.967-5.411-12.362,6.232-13.243,10.821-.218,16.684-.218,16.684l.094.532c.352-.2,4.234-9.333,4.234-9.333l1.5.424S146.107,80.7,151.595,77.3" transform="translate(209.211 90.227)" fill="#1a1a1a"/>
        <path id="Path_191" data-name="Path 191" d="M118.447,84.122a.859.859,0,0,1-.524-1.54c.074-.066,1.563-1.492,1.563-7.128a.859.859,0,1,1,1.718,0c0,6.716-2.03,8.348-2.259,8.511a.863.863,0,0,1-.5.157" transform="translate(219.042 138.956)" fill="#1a1a1a"/>
        <path id="Path_192" data-name="Path 192" d="M129.721,92.754a.858.858,0,0,1-.859-.859V71.149a.859.859,0,1,1,1.718,0V91.9a.858.858,0,0,1-.859.859" transform="translate(240.045 130.931)" fill="#1a1a1a"/>
        <path id="Path_193" data-name="Path 193" d="M149.577,82.514a.862.862,0,0,1-.767-.475c-10.587-21-34.9-25.7-35.147-25.742a.858.858,0,0,1-.69-1,.867.867,0,0,1,1-.69c.255.046,25.4,4.875,36.375,26.661a.858.858,0,0,1-.381,1.154.881.881,0,0,1-.386.092" transform="translate(210.421 101.699)" fill="#1a1a1a"/>
      </g>
    </g>
  </g>
</svg>
