<svg xmlns="http://www.w3.org/2000/svg" xmlns:xlink="http://www.w3.org/1999/xlink" width="154" height="22" viewBox="0 0 154 22">
  <defs>
    <clipPath id="clip-st-logo">
      <rect width="154" height="22"/>
    </clipPath>
  </defs>
  <g id="st-logo" clip-path="url(#clip-st-logo)">
    <path id="Path_2" data-name="Path 2" d="M7.788-8.822A4.751,4.751,0,0,0,4.752-9.834a3.931,3.931,0,0,0-2.486.682A2.83,2.83,0,0,0,1.276-7,2.556,2.556,0,0,0,2-5.17,5.14,5.14,0,0,0,4.048-4.026l.616.22a1.062,1.062,0,0,1,.836.968c0,.66-.572,1.034-1.32,1.034A2.953,2.953,0,0,1,2.068-2.9L.66-1.276A4.814,4.814,0,0,0,4.356.308,4,4,0,0,0,7.216-.7a3.166,3.166,0,0,0,1.056-2.42,2.762,2.762,0,0,0-.484-1.584,4.88,4.88,0,0,0-2.42-1.364l-.638-.2c-.748-.242-.858-.616-.858-.858,0-.462.4-.77,1.034-.77a2.228,2.228,0,0,1,1.562.638ZM17.05-3.058A2.456,2.456,0,0,1,14.828-1.8a2.268,2.268,0,0,1-1.914-.9,2.811,2.811,0,0,1-.462-1.606H19.58v-.22a5.7,5.7,0,0,0-1.144-3.74,4.553,4.553,0,0,0-3.718-1.562,4.881,4.881,0,0,0-3.586,1.342A5.074,5.074,0,0,0,9.68-4.752a4.8,4.8,0,0,0,1.5,3.718A4.986,4.986,0,0,0,14.828.308a4.706,4.706,0,0,0,4.686-2.97Zm-4.51-2.97a2.242,2.242,0,0,1,2.244-1.914A2.243,2.243,0,0,1,17.05-6.028Zm16.324.418L31.372,0h1.32l4.84-9.526H34.54l-2.508,5.5-2.552-5.5H28.248L25.7-4.026l-2.508-5.5H20.2L25.036,0h1.32ZM45.5-3.058A2.456,2.456,0,0,1,43.274-1.8a2.268,2.268,0,0,1-1.914-.9A2.811,2.811,0,0,1,40.9-4.312h7.128v-.22a5.7,5.7,0,0,0-1.144-3.74,4.553,4.553,0,0,0-3.718-1.562,4.881,4.881,0,0,0-3.586,1.342,5.074,5.074,0,0,0-1.452,3.74,4.8,4.8,0,0,0,1.5,3.718A4.986,4.986,0,0,0,43.274.308a4.706,4.706,0,0,0,4.686-2.97Zm-4.51-2.97A2.242,2.242,0,0,1,43.23-7.942,2.243,2.243,0,0,1,45.5-6.028ZM50.094,0h2.684V-4.576a3.273,3.273,0,0,1,.528-2.112,2.193,2.193,0,0,1,1.782-.77,2.018,2.018,0,0,1,1.254.352l.352-2.508a3.3,3.3,0,0,0-1.144-.22,2.919,2.919,0,0,0-1.584.418A3.213,3.213,0,0,0,52.778-8.1v-1.43H50.094Zm8.382,5.038h3.036L69.19-9.526H66.154l-2.64,5.412L60.566-9.526H57.442l4.532,8.1ZM70.51,0h2.684V-4.862a3.278,3.278,0,0,1,.418-1.848,1.83,1.83,0,0,1,1.65-.836,1.718,1.718,0,0,1,1.254.484,2.73,2.73,0,0,1,.506,1.87V0h2.684V-5.984a4.013,4.013,0,0,0-.748-2.684,3.642,3.642,0,0,0-2.816-1.166,3.5,3.5,0,0,0-2.948,1.54V-9.526H70.51ZM86.79-7.238V-9.526H84.942v-3.256H82.258v3.256H81.2v2.288h1.056V0h2.684V-7.238ZM95.5-8.294a3.45,3.45,0,0,0-3.058-1.54,4.764,4.764,0,0,0-4.73,5.06A4.834,4.834,0,0,0,92.576.308,3.417,3.417,0,0,0,95.5-1.232V0h2.684V-9.526H95.5Zm-2.376.836a2.59,2.59,0,0,1,2.64,2.684,2.609,2.609,0,0,1-2.64,2.706,2.609,2.609,0,0,1-2.64-2.706A2.59,2.59,0,0,1,93.126-7.458Zm7.612-8.58V0h2.684V-16.038Zm12.54,7.744a3.45,3.45,0,0,0-3.058-1.54,4.764,4.764,0,0,0-4.73,5.06A4.834,4.834,0,0,0,110.352.308a3.417,3.417,0,0,0,2.926-1.54V0h2.684V-9.526h-2.684Zm-2.376.836a2.59,2.59,0,0,1,2.64,2.684,2.609,2.609,0,0,1-2.64,2.706,2.609,2.609,0,0,1-2.64-2.706A2.59,2.59,0,0,1,110.9-7.458Zm7.612-2.068V5.038H121.2V-9.526Zm-.264-4.026a1.615,1.615,0,0,0,1.606,1.606,1.615,1.615,0,0,0,1.606-1.606,1.615,1.615,0,0,0-1.606-1.606A1.615,1.615,0,0,0,118.25-13.552Z" transform="translate(30 16.5)" fill="#fff"/>
    <path id="Path_1" data-name="Path 1" d="M22,22,0,0H22Z" fill="#ff9d00"/>
  </g>
</svg>
